<mxfile host="Electron" modified="2023-12-19T01:14:32.045Z" agent="Mozilla/5.0 (Windows NT 10.0; Win64; x64) AppleWebKit/537.36 (KHTML, like Gecko) draw.io/21.6.8 Chrome/114.0.5735.289 Electron/25.5.0 Safari/537.36" etag="xacxPF2JDHDIQ0CkwuBI" version="21.6.8" type="device">
  <diagram id="C5RBs43oDa-KdzZeNtuy" name="Page-1">
    <mxGraphModel dx="1913" dy="735" grid="1" gridSize="10" guides="1" tooltips="1" connect="1" arrows="1" fold="1" page="1" pageScale="1" pageWidth="827" pageHeight="1169" math="0" shadow="0">
      <root>
        <mxCell id="WIyWlLk6GJQsqaUBKTNV-0" />
        <mxCell id="WIyWlLk6GJQsqaUBKTNV-1" parent="WIyWlLk6GJQsqaUBKTNV-0" />
        <mxCell id="dguLM9EPbyCD3lKZ755u-0" value="创建XMLConfigBuilder对象&lt;br&gt;1. 创建XPathParser&lt;br&gt;2. 实例化Configuration&lt;br&gt;3. 属性赋值" style="rounded=0;whiteSpace=wrap;html=1;align=left;" vertex="1" parent="WIyWlLk6GJQsqaUBKTNV-1">
          <mxGeometry x="60" y="280" width="200" height="60" as="geometry" />
        </mxCell>
        <mxCell id="dguLM9EPbyCD3lKZ755u-1" value="&lt;div style=&quot;color: rgb(188, 190, 196);&quot;&gt;&lt;pre style=&quot;font-family:&#39;Fira Code Medium&#39;,monospace;font-size:10.5pt;&quot;&gt;try &lt;span style=&quot;color:#e8ba36;&quot;&gt;(&lt;/span&gt;InputStream inputStream = Resources.&lt;span style=&quot;font-style:italic;&quot;&gt;getResourceAsStream&lt;/span&gt;&lt;span style=&quot;color:#54a857;&quot;&gt;(&lt;/span&gt;resource&lt;span style=&quot;color:#54a857;&quot;&gt;)&lt;/span&gt;&lt;span style=&quot;color:#e8ba36;&quot;&gt;) &lt;/span&gt;&lt;span style=&quot;color:#359ff4;&quot;&gt;{&lt;br&gt;&lt;/span&gt;&lt;span style=&quot;color:#359ff4;&quot;&gt;  &lt;/span&gt;Properties props = &lt;span style=&quot;color:#cf8e6d;&quot;&gt;new &lt;/span&gt;Properties&lt;span style=&quot;color:#e8ba36;&quot;&gt;()&lt;/span&gt;;&lt;br&gt;  props.put&lt;span style=&quot;color:#e8ba36;&quot;&gt;(&lt;/span&gt;&lt;span style=&quot;color:#6aab73;&quot;&gt;&quot;prop2&quot;&lt;/span&gt;, &lt;span style=&quot;color:#6aab73;&quot;&gt;&quot;cccc&quot;&lt;/span&gt;&lt;span style=&quot;color:#e8ba36;&quot;&gt;)&lt;/span&gt;;&lt;br&gt;  XMLConfigBuilder builder = &lt;span style=&quot;color:#cf8e6d;&quot;&gt;new &lt;/span&gt;XMLConfigBuilder&lt;span style=&quot;color:#e8ba36;&quot;&gt;(&lt;/span&gt;inputStream, &lt;span style=&quot;color:#cf8e6d;&quot;&gt;null&lt;/span&gt;, props&lt;span style=&quot;color:#e8ba36;&quot;&gt;)&lt;/span&gt;;&lt;br&gt;  Configuration config = builder.parse&lt;span style=&quot;color:#e8ba36;&quot;&gt;()&lt;/span&gt;;&lt;/pre&gt;&lt;/div&gt;" style="text;html=1;strokeColor=none;fillColor=none;align=left;verticalAlign=middle;whiteSpace=wrap;rounded=0;labelBackgroundColor=none;" vertex="1" parent="WIyWlLk6GJQsqaUBKTNV-1">
          <mxGeometry x="40" y="60" width="700" height="160" as="geometry" />
        </mxCell>
        <mxCell id="dguLM9EPbyCD3lKZ755u-2" value="" style="shape=image;verticalLabelPosition=bottom;labelBackgroundColor=default;verticalAlign=top;aspect=fixed;imageAspect=0;image=data:image/png,iVBORw0KGgoAAAANSUhEUgAAA3AAAAKyCAIAAAAb36uLAACAAElEQVR4Xuy9608b3b7n2X+JRxpp7z4zZ+/u2fs5+3lOa4cAxoABA8YYg7mY+x1zv5hrQghJuBMgXMItBML9boxtbCAE8kQatdSvRqMZad5Nv5hWS93S0Zl5O6uqbGPXqrLLNkkI+X71UWRqrd+62S5/s6rWqn8j+x/+RwAAAAAAAELm39CHAAAAAAAAkA4MJQAAAAAACAsYSgAAAAAAEBYwlAAAAAAAICxgKAEAAAAAQFjAUAIAAAAAgLCAoQQAAAAAAGEBQwkAAAAAAMIChhIAAAAAAIQFDCUAAAAAAAgLGEoAAAAAABAWMJQAAAAAACAsYCgBAAAAAEBYwFACAAAAAICwgKEEAAAAAABhAUMJAAAAAADCAoYSAAAAAACEBQwlAAAAAAAICxhKAAAAAAAQFjCUAAAAAAAgLGAoAQAAAABAWMBQAgAAAACAsIChBAAAAAAAYQFDCQAAAAAAwgKGEgAAAAAAhAUMJQAAAAAACAsYSgAAAAAAEBYwlAAAAAAAICxgKAEAAAAAQFjAUAIAAAAAgLCAoQQAAAAAAGEBQwkAAAAAAMIChhIAAAAAAIQFDCUAAAAAAAgLGEoAAAAAABAWMJQAAAAAACAsYCgBAAAAAEBYwFACAAAAAICwgKEEAAAAAABhAUMJAAAAAADC4rsZShMEQRAEQRB0p6Id17fhexrKpqamoqJiAAAAAAAQPo2NjbTj+jZ8T0NJev4IgiAIgiAIClvEXBUWFtGO69sAQwlBEARBEPTDSwZDCUEQBEEQBIUjGQwlBEEQBEEQFI5kMJQQBEEQBEFQOJLBUEIQBEEQBEHhSAZDCUEQBEEQBIUjGQwlBEEQBEEQFI5kMJQQBEEQBEFQOJLBUEIQBEEQBEHhSAZDCUEQBEEQBIUjGQwlBEEQBEEQFI5kMJQQBEEQBEFQOJLBUEIQBEEQBEHhSAZDCUEQBEEQBIUjGQwlBEEQJEkRqbWT+yf2893FnqwofqKgcl9anRc3FBstifycoSjR9M5V4GwZPw2CoG8qGQwlBD1IPU6ujilaiaux/8M/Jf3xl2QCeUH+JAdJEj83BEmR7vmuy8BdjZY85qcKCYYSgn4SyWAoIehBKSIiKrM/uev/1A7+f4T0gX/94980f/hrMoG8IH9yx0kGko1k5offO1VO8r0Iy/mV1eo4OthfmZ8b7G0t0SVE8gMfgO5f3zP63IbycqhI0ocnMiYxNU2XlVNYVFZdUz+65gqHoYSghyYZDCUEPRhFxOcktf0nzjKmPv3Pjwu3flE9+eMvqS5D+Usq+ZMcJElcHpKZhPBLuV8SMVV8Pm7P9OTE8YN/cN2/vkeojcwlb+fmm+Y0SROUPHl6BEMJQQ9NMhhKCHoYepxSp37+Xzkr+Wva4B9+UXM+UoBf1CQDZytJCAnkl3WP5LEgl9vvlubeelhZXNneNl84vKyV9cPTjG83WfcN9PD6DkMJQQ9WMhhKCHoAIqYw/dW/EIOoMF7+2191fAcpBMlGMjOXxV/9yz32lB4LctCVzk979ChKqat+tnzmmaubb0ziZ/mB9fD6DkMJQQ9WMhhKCPrRFRGfw81NRpbs/eGXFNo7ivJLCgnh5inv67Vv/6aKVXTuiz0uz41jsfnbXPv9Jnp4fYehhKAHKxkMJQT92IqI4O6bVBgvg3OTbk/JzVOSQgKu0YnLfqx5GqUbi84cj9Y8i1IWhnIbXZCSYKoePdI+2XdN1JmH76cvDkkPr+93bijbYCgh6J5IBkMJQT+0ojNfcPdNClzp/kX9m3Zc2fwf1X3/RfPyvye1/+/yipM/RZXzspFA7n5KUhS/dC/F5TzOfB3NQ1n0tT2lJFMVU7voMlWONyX8RE5RyoyS2q7BsdkP6/vWE/tHh/Pq9PRsf2vj7eRwpzFfFc0PoBURk1bU8GxoenVtz3Zi+3h2/slmcxzu7b6bnx14aqrMU8f4NeQRMZrilv6Rt1vbh3aL48pmte1vfZgaeFqTnSAyiOH3XYKBCzTJZxiwu8r3QbxAf5LQHlqRKkPTi7Gl3T2z0+64OD7YX5582VSoZvbBjGte9Nt4TsGPvEeuBh++NHB/R8Rpy9vJh+hw33Jht58d7O4uTg22G/X3fm4Ygr66ZDCUEPRDi9shiFmF42sT/+dHBcRBuld8/9+qzv9D8+K/MXdMDvxrRN4KLzMJ17J7CfFL91LakyjGQRY+jmBFXpA/019I2946dEkyVfGNKy6jIzRLl1j8fHrL4b2EhcZ+sNSqV/Ajb/VYVTawcnJNB3pjW+1I4QdyilRXD78XDb/YmjJlxPBj7qLvEgzc/TaUkanGka1LqnbC5ebrBnV01eS5v8aHOvIeuRrseFNDrGdMVuf88SeqkBvnaqeKHwhBP51kMJQQ9OPqsaqKm57kren+h98yk7v/L5KkbPpf/xxV6TrOLO4eUPf9P+T4o5xFH0/5i5qbpCQF8utwK2OImZKMcM/kRURGkD914/fBUD4uHHaZHvu0Uc5PfRSZN7Tv/u132KybK0uTY68HBkaHJ5beH3iZldOF6gR+LKcYw/Cuy7jcOE6PludmRoZGXg6Mj04uLG9YLO6ktU4NP5JRdGb7qtldyxkJn30zPDQ6ODozu2axumOt6/16/ixp+H2XYOACGcrImKS720hSQnu8FV82duAxcB/3VxfHRsi4Tc+ucuN2vT81OW/30/iQR94jd4NX2lWpzfOn7Otz597GxuLi6vutE7ODObL5JIMfB0E/n2QwlBD04yqmaIVxgYVbvBnHyOIdzk3Smwf9KbJM8+K/Ef7hn/Xexx8XbZEQUiC/DrcyxxlD6XOEvertfeQrKLCpikw1LbpcheVFnqDBTWqc2Z0d7K7K08Ty9taJUGQ0zHjM4m6f3jeZU0LTMjfFdb05VKGiangck6Iva+t7PVCh5CcRxRaO7XHln1vnuop8r60/js2oH9n+yNV+MFrmO0caft8lGLhAhtJXEgr0p6DCFaXj7qfsnK515yV43VAQEatrmtjzniwUaHwYI++Ru8FHS29WP5Jy5nurtbG318kj5Mk51e2laV4REPSzSgZDCUE/rmKr7cQF/qJ64m0N//g3DfGL6QP/L327JMf/Et/6q2b4Hx8Xex8khZCiSIH8OtzSjTOXvL2PfFdDGfE4SpGQllPaMvruhDMW5++6c6gpOimK0vcfu3zJxpNUfipR8YjLtH1oErKM/hSh73Otwr5cNqUL7hQZoWpyTbOd73VqvG/DDL/vEgzcvTWUqvb3LqNvHy2N5aeSUUjrXnVyGYQaH9bIe+RpMME525Aa6J5LCPp5JYOhhKAfV//TPyUR+/jHf/KZhvyL0kSsYaLpf6OtpB9IIaQoUiC/Drd0XjOUvKU5gvhGhyzvX3QxPh59mO0uU4deZWb/HleUdTyfn0ZUMGjlKrIO5AdXSXTZGwtX8v6AXtSMPM4fdE3F+U6Rht93CQbuvhrK1I5tVx83nqr5iZzkFZMX7nHgNz68kffo9i1wrLSLfjcgCIKhhKAfWn/8q4q2hr+mDzMXr6sddFJASIH8Otzytom0faTxjQ5ZAU3V5fbsqzZjUZrXhcigFe9ZLDxTyk8jiqmcchsX80pPqcb/am4vReQPuTYe3++nFsx4KbpqzrVmaLXTy7WE33cJBu6eGkp5zYxrJc32Ux0/0S1F3ZJ7KHiND3PkPbp9C+Yb4vmJEAR5SQZDCUE/rr6lofQWbR9p+DEhyvOLznv84NLs4uryh6Mju/tGOodlvr+a3UsmeCka5oV9iUuP09qWXJOUhGvLztKrtqrMhICVpXVtuKLe1PgdkLyhY65wn5Xa4fddgoG7p4Yys3efy/lpskqgYy7lDBwKNz7MkffI0+CT3kx+GgRB3pLBUELQj6tvecnbW7R9pOHHhCjPL7rIwpRIpbb86ax7LbBluVMjeLvcI2b9TUp2RX1n/8vx+fmVjbWto70j67HFabF/tJ97tpURNVXRGuPL93afvYfOnZtvR9rKdXGiE5aGVyde+aVw7r2XZPh9l2Dg7qmhLBxyOXinewtIIaX1rAs3PsyR98jT4O3WZH4aBEHeksFQQtCPq2+5KMdbtH2k4ceEqECmilVEUv2sy398etdGrauJUOY0jy4duZb0+sWvqYqIURe3Dy6aPTvOcFj3lp5VaYV2Mywbv101IhHvBoTfdwkG7p4ayrJx1yBbnwve3MgpybQi3PgwR94j6Q2GoJ9dMhhKCPpx9S23DfIWbR9p+DEhSpKpIsrut7icwYdun7mkCHXtjMUzs2g92p4ZfdXV1lxTWVFUkJ+j1+sytJq8Pvf2ioKugqeImJT82p7JxX3vDbc/bo9Vq/hTlfmD3M6FF5cfpoZevJRCg/Y2POy+S/FDqd0ik3yCklCgP0kPL3LPUDpe5fHTbpXcsSrc+DBH3iPpDYagn10yGEoI+nH1LTc29xZtH2n4MSFKqqm6XZ9hnyj0Op7atm7njjsOx+qyYvmej5XoRJdfRSjURabBFZvbrV4tt/CWI2uf7HBJH0eErqcGUrh9l+SHsl64d32X0ncJBfqT9HB93wGX83qiUvweSt3zXeHGhznyHklvMAT97JLBUELQD61v9uhFb9H2kYYfE6KkmqrbJxDaXxfcHtZ0bXLhNxtPdYJmklHGs21hXyJBEcqSEbPLU271+m5x/bhkzMnVvt7tt/XCCrPvj7yu/G63idwCKDcuuA2xlL6HabCkh8tr51z3hvp5Dk1U5axI48MceY+kNxiCfnbJYCgh6IdWdOYLbpLy3/6q49nEP/yi/k07rmz+j+q+/6J5+d+Jv5RXnNA3VpJAbnqSFMUvXUS0faThx4QoiabqcdGIw2Wqtp95PQCxZPSMC/d35TSp9YMrlu9LpMlz4dUxxTutxFTOWLmknf4MUT8rpjD7TpT3ysyVcCbS/cjScZfxktb3MA1WEOFpXbuuhn3oFnlC+mPP3kB048MbeY+CaDAE/eSSwVBC0I+tiIiktv9E7KDCePmHX1L4njIgv6SQQBJOCiFF8QsXEW0fafgxIUqSqXqcalp2Gcebw5d5Xt3IH7Rwx68nq4SbFKGsfH3siqV9iSSl925x4ceD/AUkEZm9rmuvV2u9gg+z8aMw+04U17TkStp7mcdfAk5al2JaZp9GLbnvYRqsYMJTuz+4MluHi4SejJhYP2cTb3xYI+9RMA2GoJ9bMhhKCPrRFRGfo37+X4kpjCzZC85T/pJCQkggCSeF8Mu9Fwpkqh7Ha8t73x659/1xbLSmensqhefKqe3D8yz+SuxIZU7rxM6V25QI+RJGZa823va1VOpTFLTjjlaV9L4/58LNo6W0aVMYBrdd150/bk52l6TH83chj4xL0ZfVdo3NrQ+K3AEZWt8ZpbRtuC4KOw8GS1VezYuISa8b3fFe+S7Yd57CNFhBhcdVTrknIC2rnXlK775Fp1a8/OB5TI5w48MYeY+CajAE/dSSwVBC0APQ45S69Ff/ws1TClz7FoJk4+YmSSAJ55d4X+T5Redv7j03v7K0un9g82whSTibbeJvxRhtGHYvOrlxWHbfDL3s6exoa3/y9OXk3LqNXa9z+eFl+8stUV/i1YZPlsO95bnZ0ZHRlwMjg2Ozs6tmi2cLIeu7WmqZN6vH6trZ/dtdbD5Zj/ffr6y+nV9ZXNn4sGOzepIck0U+geH2nVFsyeiRJ8/H/dWF0aGRwZE306vmU6bln7YGn792XRan+x4Zk5iiTtdlZhvyi8rKKmtrG8bcy+HNkx2NNdVVpcVFeTk5Oq0mRZUg5/c+MiaBC89jw41Bhj96lFg9dezpI9P4sZHRwZGpN+8O2WH/tDnQJ974R2GMvEcwlBAkVTIYSgh6GCKmkJunTH36n5k1OtSGQbcwy70HufsmScg9dpOPvH7RA2HdflWtEbqqHZne+Hb/9sKuLw7LbGde7KOIAtfdeIK+xHMjpiin22/qtUKVuxQRl9MxseX02Redwrrb73vFPPy+M4rJ6lw0e1tPD1dbkw3qyPjGZe5Puu/Zzw/pKDG22vhPWcp65nrajRTocEaRaQ0Tu97bM3m4+DBUrYrw03hOoY28RzCUECRVMhhKCHowiojP4e6n5Gzl48KtX1RP/vhLKucjyQvyJznIWUnuvsn7eqXbIz+m6vrs7Pz48PDd3GRvS5lawb+e6a2YtLK2l7NLmxaz/erMcXlitmx/WBrpaytMdd1cF+Na7CzsSx7HaYsbnr56vbS8fnhoObc6PjnOr6xW+/7WxtzrV20VeqW/yt2KUKQVt/QMvV3eNB+eXNjPr+125/HB/srC3GCvqTIvlXpE+N30/RFzbTyruuf17OrRofXS7rgwHx6tzAy3lmq4zhsG7GyZdN+/v6FkFJVc0PLy9fL+Phk0xyUZsaXJFw35ydx0rHjjvRT0yHsEQwlBUiWDoYSgB6WIiKjMfm4vIeZy9sC//vFvGpeh/JuG/MkdJxlINumrcCAIgiDIj2QwlBD0IPU4uTqmaCWuxv4P/5T0x1+SCeQF+ZMcJEn83BAEQRAUhmQwlBAEQRAEQVA4ksFQQhAEQRAEQeFIBkMJQRAEQRAEhSMZDCUEQRAEQRAUjmQwlBAEQRAEQVA4ksFQQhAEQRAEQeFIBkMJQRAEQRAEhSMZDCUEQRAEQRAUjmQwlBAEQRAEQVA4ksFQQhAEQRAEQeFIBkMJQRAEQRAEhSMZDCUEQRAEQRAUjmQwlBAEQRAEQVA4ksFQQhAEQRAEQeFIBkMJQRAEQRAEhSMZDCUEQRAEQRAUjmQ/s6E0QRAEQRAEQWFLBkMJQRAEQRAEhSPZz2woH0VGAwAAAACAMJHBUAIAAAAAgHCQwVACAAAAAIBwkMFQAgAAAACAcJDBUAIAAAAAgHCQwVACAAAAAIBwkMFQAgAAAACAcJDBUAIAAAAAgHCQwVACAAAAAIBwkMFQAgAAAACAcJDBUAIAAAAAgHCQwVACAAAAAIBwkMFQAgAAAACAcJDBUAIAAAAAgHCQwVACAAAAAIBwkMFQAgAAAACAcJDBUIZApir2mSFp1ag2N2uuOrQE8oL8SQ6SJDo/AAAAAMADRgZDGRRV6crjZs2X7gw/kAwkGx0LAAAAAPAgkcFQSiQlXrFZr+Yso61FPW6IqVH+lhnxl6Rf/0wgL8if5CBJ4vKQzCSELgcAAAAA4IEhg6GUgiElzmlKJzbxrEVtSv173F//MVYEkkQynLG2koSQQLo08NOiyfvwpdvxpXuyyvd4TaWDPX7LXp6WDgcCROU+qz/61LEzk5HKTwIA3BHqrl3nxY3zYq7M93jFmxv2+C1rXTo6HAggN3Sv2q0281iNmp/0YyKDoQwIMYXXncyk43KZMunXP9MmkoZkI5lJCAmEp/wKVL1lXddpYS6VxJBTuCvo2747YoYyL3d2te79XtOOzWT5fI8MpWuc3Zx97jxxtm5t17weyK7Qxsip/N+DhJ4jtnm/V1RG0Kngh8c46etXxOF7nXuJqzu7zw1UEkPW85P72RcxQ5ndsTz/bmtt27x/cnHGdu1+GErex+b6zH5+fHS0Mj/T11qlUd6Pc5e2b5NtnmOy5mGcu2QwlP5JiVdwc5NjeTFxv/yJ9o5ikMwkhJunvI/XvhXN6/fFtYTAQzOUXri6dj/eGp6h9OGzabkvNYkK+ea4Zig3x9OT+Ul3yI/9ffmhgaG8F4gZSi9cXbuXhtIHh3m9p+AenLu4GUrrwWD51zx3JZqWvtWbIoOh9A933+RymVLMTVbF/7Zfq7rp1DL3TVYn8TwlN09JCqFLDkh6Vk5zd1/f2DSBvCB/0nlCRq6buvmBfyBhKL8NrsbYy2q0iTptYmamylCa0fKicv2Ss5WdS63xdNQD5Af/vvzQqDT5Rbk+9C2ytuBwss33eGYcP/YeAkP5bXA15mC0TpORRcjILiyqbn/6Zs/C2Ur7hwY1HfUAkRvn7d/qTZHBUPqhKp2xg/aWtKS/CV/p1j/+63UnM395UJu8Xp00lhfDy0ACSTjJEOy67+Lq+peTb3mQg3TOkJCXlpnvjWsJARjKb4PYOCvS9PMf2SRHSeFjftTD40f/vjwwAniy+02AxsNQ3hFi46xQt7znPOXRUPHDuNDsF3nhqPObvSkyGEo/cDsEmVL/TltJjq60CJJhqVRJJ3kg4V/YvYTo8sVIz8qh3STH3cxTRhmGW++PawkBMaPjAobyjhAfZ/IRamMnKZuf6fhRD44f/vvywBDzCj8EARoPQ3lHiI9zVMGLI3aScvellh/14Igu6D/8dm+KDIZSjExV7Bd2hyA/a7qf6yJJnqEcOZ3kgYRzewlJ3/O8ubuPs499o9P5ZVUE8oI7QpLo/NLQlOc9H6uY3Wjcu+xkrYAA3kZH3VXPHPy9rjWJX5SH1E4uT0NHqusIZ0FWu5grocn5+hcL9TuOdtt15/Fpw9zr3PLUaLoQDzEJyQ0vyxcOWo+uuuxX7QdHdVOD+kJVFJ1T3OiwiBrKqARtWlNfyfRG056zw/65y/qxfe+gbmo4tzxNzi/EXctii4IEJuVkPpuuXbeaTq67bB9Nu3vGsT6dXvQSW5S6NGdgqX7X2WG76Tg6rZ8ZzSlWRUen5KwIN4xfqUTvIn3EOLx6FBkdk1jVW/r2oOXwkondP66fnTCUqQTyC46zsqmG/cx0jpXyk6KDbxghXqvtmqhZtZhObvgfS5Z6k/fnMMR18XJNSfbzWeOapc3yqevsc6fF2bq5bZwcNjQUJyT4TlcE+33xIH2Qb79iVCHAD+JewYWmbfWaZHCsdCTykzyoW9+zeT70JLuOcMVut6WS729ybvPQ1Jr5yHplt5/tri8PdlalsG+oCDHK3Jbe1+/XD85OHVdWi3Vz5e3zluJEgbNKgMaLGsqoBE1Ja8/wwvKW5dh2deb8aLFY1lfmX3RUpQo0jKtlrSGBOXfpG16OLe/vn5zbHVeWE/PawlSPMSdW7Mso1xS2j01/MJNa7Db77ofFl+1lpCOq9k3hhvErlehdpI8Yh1ePyNcqw9g5urK+b7Mwsadbq0tDPRW+v1N+xllZO88ayrOpQn5SdPANYwrUVD4dmt/eNZ/bz9mSeax2eX8OQ1wXr0gvbB14vbRDarE6rs/OLo4PD98vzr3oaSnQJvqeu7TF3QMDE8vLG5YTB78uN4Lvo/RBvv2KeZcgg6EU45khibjAceoqNofmP/z7jEd/Gc6VkzyT+QrympD6z/+OzkkYZ1fnkALpWgTx2EdiJbkj5IXHYtL5pVHxpvP0yoX1d/YX8XOn1X2EY6zcKyQu480nJttWX6LImrjEJ8dMBvv7LM89xdyv6elEemaH8YirxZtPTYMlsYKlqYoL33NXUXlcNQ6U8kP8GB0GEUOZ3FhzSpfPcd34qoB/XuZqORpWZ3Yaj7jF176c2SrrkunzsqJwsNFKZXZ8bHhWljPLvhY0It6VSrFHQY2Yd+Fbz5LkydqRY8on/V7T6GuR/Yyz21CaBg38pBAallxVun3N5vnccWBu2jrrsLuj7Jet65vGqancQoVXSAjr4h/HVU032+hWcfxe3+n+TxFH0N8XN0EMsucrRhUC/ODHK7iINc5bmTxHPTrBz1v0Ix23wPbT2ybPuYsr9nKoPKtl8czB/wG+sW6NFSYJlRaVXNC/5bozjxeyMVqo4oUEaLyIoUyunb+ky+ewbY3kKXnlcLXYXxRmtQr1xXlxvf+mUeA/eAnFzzcEKrKsvSxuX2ZfCxoR70ol2KPgRsy78KNunVxVObFp5wc6FlpiBfILjrPbUJ6M5fCSQmhYVErZ6JGdzXNms21vHR3aPrmjPp0c7C0vzI90FMd4hYSwLj4ixTi2e0W3isPx4UmKT/6qUful1cVH7t13ODxHOKZKqFqCGmTPV8y7BBkMpRirRmZasUr5G20QCZvViV+oZ+S8LY6ncxJIISSVFEjXIkjv8ISYoSRJdP7gkeZaogtfm5hsZyVFkXRqpNxQvMf8RnZOVd3+781V8kX78e+dm7N5NYYEdYJClZxY1Fz8zskmXRmb3VMCHhQ6wyrrJ04OyjsqU/Tq2OTUpLzy7JGDdibkU0N3hs+5z4/RYRAxlNGJWW+vTKtvizrq0nI1ccnKWI0upaavepebErMU5vreDuiqxdlGnLHVXPW0Xq1PjVUlKjNz0ztmGi1sFdZ3t2aaI7W5hks63ixqLEgi3U9OSSyoz5+1djmICxFsGF1pgLcm6BHzLtwyY3i613V22TjRn1VVmKzPVOWXahv7SudeZ/L64meccwfZq8Bf6nwmDkNrWELm7BUTcrSSmxfPpUYl5eTMnjEHT5d0/v8nJnHEEuqrWZffsfpaX56TkJYYq1Il6A3qalPB2GrTwVKmn1okVuGdWdogu79iVCHAD368ght58aCZyXM4XCp47soZsDC/kfa35XH8Ys2WM4f98HVXXY42TZmYrNKV1L/aOGaTTpdMvlP4BIX2yTbrJ87XX/eUGrJTVCnJuvzitol1KxNiXetN95ncCtB4EUMZrWxasZq3J1/2VJcY1CnJ8ap0raGu562ZszKkNN85Klctx2a74+Lj1szzmkLSsGSlOktf0TO+dcFW8XG2IcW3dnXd/DmbdLb8siVPR7qfotIV1/Qu7ztviAsRbBhdaSB7FOyIeRd+Mf7k+Zrj+mRj9kmT0ZCTwyy1qWrtHlkerOP1xc84G56zV4Gd730mDkNrmLJuifVV9rnO/Dj3uUtvWj5kDl7O1Kmo2r2ROGKJNXPs4Fu3B1uqsrSahMTkpPTsnKLapmdv5rdt0w1+apFYhXdmaYPs/op5lyCDoRSDu4FS//ivtEEkPMuInC6M3a9VkTxH9cnkNaEj7RGdM5Zdu/MlmNsoGzt7xS55kyQ6f/BI/YHMyN9gfoM739RQX6RH0aXTrEVwlpRE3R53lUzMwXQ67xc6Vl/wgZ1MOhpXx/gkKU3bzPGzg4Ic3tk/OuWVlUmyLmd6f2c8tfiH8m3R8XL6mntUZn/TGZO/uTfDJ+m2luNin+kxBkX1Atv9L7WtCV7HI1MHHGwI6Uu0b4gqc9Y9b0c17BZpb03QI8Zx2yNbhVFgbpWPmKGUJ2ZMnTNJthWenw6lYcntdUwtN7XNvuf35FYjM0/5e12b+IXLaKkjFlky1cG+lfl6Kokg93t7vsQqfDJLHGTuK0YfB+L48Qq3pD89YH6D7fMVt5bRjaJi7JQp4Xi4zOtT6iqWmIOxCv65K/PZHjvTczZY5LsHnLprhbnKeb3el8f/wOeP7DMhH2fqvb8jnlr8Q/k2ebycPgnL9U+2mCuPzp0X6T5JnlquN18V889dibVTbPed7zqUXscjC0aP2BDSF99zlzypYdk9b0c17BZp3iXoEeO4Hbf9qQYVPRR8xD4k8gTjvJlJuppr9PWgoTQspWWFqcW+bPIeSXLualhiJhQdK53evw4U0kYssmyEnSzc6hVcQSGP8HeSkViFT2aJg8x9xbyPyGAoxfjYwewEJLa+m0PKPZSx7Fpvko0USNciiDpDz9lHGpJE5w8eyT+QcU3rXYw/WM/mP4YkLnOandjbfaXyPu7+NW3qFbjfWV6zwF4BvCwt854LzCrYZkI6xssFvhjqngYm5HNNo9dpMVRDKUJOITvV2sW7HdBdS/vrctqGRsrLy9gZr/ahAq/jJaXMcuAvXTPGGDokd4hbyOKvYZLemuBHjMPdo47JSoHm0fAMpZycjVVJRQ0Fs1bufazr1Pk2IKSGFU2IWD1d/hZTmsBVdW8kjRgzpcoO/mV1nd9TvCASq/DJLHWQ2a8Y/yDwh5hX8EXVtsjcQHa91Ma/NBRbt8hORJ08y/a+iOn+Nd3p19ClxdW9OWNSLaMV3v/30PUdMSG26WKBX1+N6QMT4lho8frAh2ooRdD3s1OtjjdFPsfdtVhnSvh38hDkJePsjNfpeJ7XwcIRZjmw07FYSVvwKEM/t5DFX8MkeZfgR4zD06O5Urp5AvA+JPJIRWKSrsTYt7TH3lZoef9E69uAkBpWOsROXtJWT9vLlkZfVfdB0ogxU6rs4Ftmm3xtqxQkVuGTWeogs18x7yMyGEoxvqOhJBRWGGk3SQ7SOUNC+g9kXFX5CfPryJ+9S22vY2f1GrrTfI67Sr4sLRGa8klqq2V/axufeJ2yU11LE4xNQmtc5BXlrG8zDXid+1y1nFU056cU0LRWHDIh/nybD8nCa2VctdxU1ghdNYvWGtjp2+7JytuD2mdNbAdrWwW/+ZUV3D18fhom5a0JYcQ4XIV/Kq8S7BGFH+N+elxp0vPPvKE1zDV3uJ+XwQtJN7CL4oXX/XiQMmIERXbhFnsrpM1W+6otTasQsLxiSKzCJ7PkQWa+YtRB4AdphjIyrmyCdUg7/ek+77W6eYWd1dvo9b1r1lWsZbRc6Nylalxmf2u3+tReRbWtsj5jsc33Bj4Oeenrj0yIedTLVbhqoTbRdNEwaWNC/Pk2H1QmwbUyrlrs03WCH0LNE3b69nzO65ul69piO/iuI57Kz/RlgruHz0/DpHiXEEaMw1W4dcIo2CMKP8b9cmu6K5NvmEJrmGvu8EN3Ji8krYddFC+87seDlBEjKLKeH7ET5Ff7y6ONxbqYIM5dEqvwySx5kJmvmPcRGQylGP4veXNINJTBXvLmUGdkdr8a46wkeUH+pPOEShA/kI+TX9iYzEdjqV7XqV3Puztb0/PuXHGVfJQv3NrSUvYmwo4hr69ZwRh7G1kgXnstgODNnPERu4eSEBWbXZndO1Y+u9Gwbm45cJpOrjrt7sVDwobypCCbruKR8B5ARRPsdfCr0jI6P0HPTeDxK/JGylsTwoj5FH6cn0WVKYiYoTya1qqEfnRDa5iGm7m8qqyR+xyPN1ayBrSxy+snnEbKiLHIM1vKN9mbNRk+ta3MFDQVKeOFOsJDchVemSUPMvMVow8CcSQayujHuUPslUr7q0Kv69Su591dL7Twrrq4it3s5c+UcxSNcvexvfaaLy8asNB+heJ8xmsBRIDGi91DSYhU5Za29jOrdz/sbx1Yjy3OU/uVw7WsWNhQbj8TPkMK7QFUwk22WUcr6PwE3bNjKoSHFO8Swoj5FL75VPhsTCFmKO1jlclCX/nQGpbezs5cWt/U+d4kEF85zX5aNp76/qeFh5QRY1HoGyYO2Zs12eqONsefteZrlEId4SG5Cq/MkgeZ+Yp5/ymDoRTD/6IcDomGMthFOR5qW7s4Q0le0KlhENQPJPm9ZyYjye+9Z7bfUMQtx6Ev7LpKpmebOApKjpjArnEvS1E+w1xVD4i3CQvNUCbk5M6celbddlnszZt7De/Wa+c3mtlZWH7+AKMkZCgrZtgQZ0kBnV8khEeASllCGDHphQvkdz8pR6dN7dlmB/C8yig0jRFiw1T6Jfb2ie0JrcZ9P25savqImTloX89OoyryJqhOxSQlN7yq+sDeAMpxcljZUxrg4ahBVRFUZo7g/qv50xPAk3mhbf/ATEaeTte5l9nKc15yy3EWK/kPeXIVS882ceQNnTGBzuni24NV407KcwjgbcICNF7EUCboOxZ32WvuDI7zw72DtbWNpaX3yzvcMhphQylmI4QMZdU4602PB4V/GdXde1QIjwCVsoQwYtILF8jveVKOJv/ZCnux2zxdL3T9JMSGJbWsMbdPnB8NVWo9566UyoktZjCvltr8f7WD6pQiMa/l2cyu2bMz0blz401fodr/uSuoKoLKzOFzlpPBUIrhf9sgDomGMthtgzzcD0MZHZ85y/7eL7dxlwmiS6a45Til3re0c7hKNhcI/y9f6L7DwtdsaR/LKhUxCeLEetUViqFUZbnWxNiNz+tT0r2veIr4vACjJBTlnqEsK6XzP2JuCtykQngEqJQlhBGTXrhAfq9xVmQXbrITugcTafTDn0JumKa5+pBdsGV3Nq+uGxd3mo/Yj5zdWlnnuyMGTbCdYoiMza7OebXSZHFNTrcvmcT2xmIIqoqgMoMQCODJvImrW2J/79cbU9gjMeUj7ETU8WgF9SF0FbvVx78fjkPovsPiQXZ1i2W8RhGfIE4cvfRHrPGChjLRtSbm+nBpoMagVXjd0i1kDW9rEXMGQlGuGcpTkRlK7dNDKoRHgEpZQhgx6YUL5PcaZ0XW80P2wrFtqCSByh9qw6LS6+Zs3PXo492dxcW19ztn7B26n4Q3ZvIh2E4xRKpyy9tH53bOXbtBnX5o0vo5dwVVRVCZBZDBUIrxHTc293BPDCVxkJPspcwDA/N/d4V2kt08b28wmf4cu0q+Li8XeiKfilvP+6Wxx+vOyzTuiueX2mahSS9BaKPjg5Ch1PY2srU0P9dTK2xcS0n4Pi/AKAkZygz3PZSCfZGXlnE7CoVpKEMYMQ4phQvk9xlneckUu7rl9+aXufyRDLlhzFbwLUZmcG66bJ+7bFemPWbr+Ay90P1MPILtlDfKDN3QITurel3TIN7moKoIKjMIAdoriBNTNnzCZF5/wvwXN6Z6jr1uaHmeS5+7XMXaXlcJXUlMbn7H/n5vet9DqeGueDqXTUKTXoIEaLyQoczo2mRr2R3I5N+17F5Kwvd5AZyBkKHUdXP3UC4J9kVeOCo4FepNgEpZQhgxDimFC+T3Gee4spFj5qBjb1jPv7YWcsPIuUtTv8AMjt1x5Ti/slosa4t+t46/JdhOeRGVkG58vcHOudrmW8TbHFQVQWUWQAZD6YeAj16UYihDePSiB4+h9IbOFjzls+yPqNidjhTyrAJ2vW1Lvz4yobGG3XTaZ2GNB9evKZuTSo0xLrH1XpT4LNnJ5vxf50KTwIJEQYSMjhdChrJ0mluYXFJC5U9oNrILjPg+L4AzEDKU0aWlrGXsfFNNnfofRWb2c3aTX5E3ASrlCH7EOCQVTufnjXOiboad6z07yNfz/tsQasOi1foFUqazujE18FmYR7Cd4iF3fVrah33XyXoT1PclzPaAgAh5BVHkLst1MJgZlVj7ll1Z4rOwxoOrWCYnP4l4kfpp7oLpcJn3uSur38yEON7XJlIhwgRovJChrBjjFiYP03dmJ9YvsAuM+D4vgDMQMpTyIs4y2ufLY/n5H0Xqn+ywg8OvyJsAlXIEP2Ickgqn8/PGWVm3yM31rj/N4Z27Qm1YdErzKinzeK4lWeCc759gO8VDnvWcbbN1Ip+f5KHqNXuJXOzOYF/CbA8MpV+q0pXEC9pb0sTWegc0lCSQhDP3YqbT1wcD89UMpWGYnXG8rqqldmcQIa51k/mZ3HuprnvH/rjSGwmxuA1lt3lBx7v3OU5fsM7tQzma6nvbR3zrJlvmWVVDiqCfiFJ6X+URMzoehAyla73I55oGXpcVqQMnrjbfgaGMVA+x+7ef7edne23PyRCnGTsTrsibAJW6CHrEOKQVTuWnxlnTVc/+p6JrpUPpO9MTYsO4PX2OhrnrksEhsVPxCuHTvaKYu6+37ZX45kRBfV8ktgeEjLBXECWlY5n5TbX0FjXNMvfJCWwkxOI2lBfON8YU3rnLvQ+l/VUBbx/KjnfsvXeHM83C+/bJE2J8JsMCNF7IULrWizjmW7wfuEJQFIzu+F2UI+YMhAxldGTROLt/+/WH3lzeuSu2bIrdqZsf4kuASl0EPWIc0gqn8vPHOUrbtsr+p8Kx2aLxPXeF2DBuTx97v4FOCojETsXHxNET6gRFwbCd6Qt/7bk3BS/Y7cdtsw28D48QEtsjigyG0j+b9czV6uUyZdwvf6L9on9DSUJIIMlACqFLlsJXM5RxlRXctdf9pdxSXbwqPjY5WZmVm6pP5Of0EF9TyaxcOah/z1zv7pytE56Ccv2aXnVYv3TuLuXXso+KSVIlFjQVLXNPyrmsaaAeDq7Q5ixxy28vGl73ZVUUqPS6RH1OSklNVvur0rlD0+bzJIFaKKPjQshQxlVXcCtv9t7qDapoZsW6PE5fnjt+3Om4MHFPibwDQ8lsP1HLPQ7naKOooSBRrVSoVImG6tzxow7HuYndpZIf4k2ASt0EO2JBFc7PT49zlOoZu2LG8bGmkfeknJAaVjzJ7Bxk3ysu1yqou5QCILFTVXMdu+vlzzt0pbmJaYmKJGVsWrqqrKVogduI3lZSIF5vUN8Xie0BISPiFURRVr5h5t7W17aY691ny9X8BxVyuIplHgnjME8/bcjTaZSJqiRdce3Lde5JOZb5FuodV2ja107ZVPPGTE9TdV5OtlaXk2Uoq2jofja6vGE56MkUqEWs8UKGMq58ip07PLdMNhckKsi5Sx6tyinumN6035iZZ+HQPi+AMxA0lI+i0pqW2PtEz8+WXzBPyolPTE7SFpRzFVkcAiE+BKjUTbAjFlTh/Pz0OEdmv9xmXTj1bobWsLJhGwn5tDZQpUmMixT8X7QoEjtlnLCfLL4eaDFW6HWahMSkeJUmLbui/sXqEduR/cFiP+eu0gnuw3M63VGhTU2OS0xRabL1hTlCG9tJbI8oMhhK/6TEK5ymdGIKx/JiBD2lGCTzGLsWh4SnBFhDKspXu4cyOkLZvM5u/ueLH6MTHZnyyu7OeVlWwXsMjBvXr+lidtlAg8CDs68aXhQKO1GlPmfGJrpGeLvP5zKEqNHhEDKU0REJjau3m9qc3XRxl7kdF7Vd+qSOPSp/QGcgYiijI2JLRpsEnuV9UdeVlfaKddXeIYoCw+xq7fJ2w/pxy95Z+yn3ZOrPnSfO1t2Tpg+79ctrxjftAiYsqBHjCNAjCj/jrCwtPWArMs9peavNQmhYXF7hJv209N+7LM7m1eXSzlJlnFfm0EbM1RdBLuqe5ArOSbgJ5vsS7CCDYBH1CmJE5o+4J9huTsarRM5drmLftFb0rQs8z9q6MWQQ+OgSEjJNi/uia4SPenQCtYg1XshQRkdoWudvN7W5tju4y9w35ne9Ol3PGpU/oDMQNpSkoqSyl1vshou+mFd6dSUjrKv2DlHkPVmeX15fWd/f2rMcWi65J1M7zpzHRyfb27urq+sLC/Mten7tQY4YR4AeUfgZZ2XRKLfZp+N1Fe/cFULD4nL6D7mOe+NwXBzv7cwMPylK8zl3hTRirr4IYn7/XM/fU9OHCI1pkV1u5Qv/rfeuSPIg85HBUAbEkBJ33ck8qnu5TJn0q/C1bx4kGzc3SQJJOF2mRL6eoSREKyuelS0ctp3cdNlvOsz25vcrFc0CNw/dou1t5EzYwXCK77MTb3H9mm7mpD6KUpfmDrxr2HV22q87j08bZsdyS5MFLnfeIo8vait8vUpC2q2fu21X7QfHDW9nijrrUtS+vwF+jA6DoKEkRMWX9JS+PWg9ue6yfWo/MNdPD2cXJDL/pzSMMF7zbgwlQ7SmPHdopWGP6XvH0Wn9zEh2YRKpSNG0zg+Jra+mnQoP22QaVQWL5BHjCNAjCr/jHFu3zHmsthH62RLBNSxGV5E9sifg2Nx0vO9Ref5XFtqIxaWqG/tLp9cbtokHvely/N5pvWzd2qoe6cvMEV+Oc4vk70uwgwyCxY9XEEPXtcGZMGu/Qezc5Sp22aR+JNcUdYzNrp8c26/s9rPdD8sDHRUqgcudt0SrSxv7Z+Y3To6tH8/Or6yn1q21lfGXT6oNab4f+ACNFzSUj5hnupa1j6ysHzptTlK4bWt1ob+tSMmcTgteMtc078ZQMijSSzrG59YtTN9tpO+LL1uLE0lFiW2L/JDYmjnaqfC4Gi6lqmCRPGIcAXpE4XeckxpnOI91NFFAubHgGhafWdo2scZMUopg22rPuj13hTRicSlFrU9GFpY2jg9PL+3Oa4fj8uTo6N3bie66PNcDxP0SranqGl/dOHLanZ/sNsfBztbclMn3SSUcwQ4yHxkMpRSIKeTmKc9a1KbUv/tZ9x3HrsI5Y5d1k5Bw3OT9I62nnjWUgo9VdIFfUxAcj5W18622L92Ww4qeBk1BThK74SUhSa9PLq7WD26zWxHdGJuk2D4AhNBwG1IKP1bRhfvXtFt4D10AeESkNUweXDkvLjamnhlLi7My2Q0vCbqczLyy8pax96xttS+0xlGxDxIZDKVEUuIV3P2UX9i9hMYNMTXK3zIj/pL0658J5AX5kxzkdgji7psM+Ur3PSXxyTFjFs+2cvxsNA1DCYIiob6auTXiUnindIa0vDXmvzGdI14bSgMQDDrX03HemfzsthHu9Az4yUismWVujbDMCO6UzqDu3mH+G2Of9Np3+SEjg6EMiqp0JbeXkB9IhtDWdN9vFIUl++zv+mydv0s/MJQgKFx7oa/qRbf9V+oXmA+ev219APCDwjB4yv6uiy3H4YChBEHh2gt9vllFJbmIb15lPnj+tvV5UMhgKEMgUxX7zJC0alSbmzVXHVoCeUH+JAdD2L38hyAysWuHXWZxWmTg7SjhCwwlCIqCcdZQWgpzhXbCj34UpXvKblH0u7FZaFkiAAGIzOh9z+7juPvSz0L+aBhKECTFg+xKqd1+g9BO+NGP5Fmda8wWRY6lNrHLLw8MGQwlECEhOVGbHJuUEJeRp+tdbWXXOpjGy/1NT0bDUIIgiSsrO2Y+Wt27C3lV+rgE139XouKU8fqSzCdzjdx+PXtj6oc363/7FaOSQDgkqnQZKpVKmaLLMfbPH7F3T5qni/1NT0bDUIIgiSseYx/vfm6e6jZmpiRGcetjouPi1TmF9X2vN12bPQ0U0U96/NG5/Yp5H5fBUAIRqG1WOtb6UwL+qMNQgiBRFA25XCOH7brT7nrENsvv7esTOq3fuaUflNuvGJUEwoHaZsW+8yQv4I86DCUIksSS/o2L24/Z+ZXt7Mrh2mqewWHdGzJmPMRz1+1XzPu4DIYSiFDwsnHLymySYrts21wvf1KVIGXFOgwlCJ7o5LzMp5PVK0et5qsu++du+1XHsa1pda1quF9frg0wKf7jcvsVo5JAOBT1bhztmc/tzivL0cHi6+dlWinnLhhKEDzylJyG58NvNzcPHVbHJ+ZZ3taz/Z2dhZmJJ81VGt6DxB4Ot18x7+MyGEoAAAAAABAOMhhKAAAAAAAQDjIYSgAAAAAAEA4yGEoAAAAAABAOMhhKAAAAAAAQDjIYSgAAAAAAEA4yGEoAAAAAABAOMhhKAAAAAAAQDjIYSgAAAAAAEA4yGEoAAAAAABAOMhhKAAAAAAAQDjIYSgAAAAAAEA4yGEoAAAAAABAOMhhKAAAAAAAQDjIYSgAAAAAAEA4yGMoQyFTFPjMkrRrV5mbNVYeWQF6QP8lBkkTnBwAAAAB4wMhgKIOiKl153Kz50p3hB5KBZKNjAQAAAAAeJDIYSomkxCs269WcZbS1qMcNMTXK3zIj/pL0658J5AX5kxwkSVwekpmE0OUAAAAAADwwZDCUUjCkxDlN6cQmnrWoTal/j/vrP8aKQJJIhjPWVpIQEkiXBvzzODa/rWhivXHX2WH93GW/Mh2eNi4tFNekUjldROU+qz/61LEzk5HKTwKCYMQAAN+cx6rCxhezixsnx9aPZ86rU4ttd2NtaqAuhcrpQm7oXrVbbeaxGjU/CQjyXUdMBkMZEGIKrzuZScflMmXSr3+mTSQNyUYykxASCE8ZFBHKhhWT40s3n+uq2hgqs4uEniM2z+8VlRF0KqDBiAHwUFFoCxqfD85tbh7YLGefzs4ujg8P3s2/6TXVZCTG8DN/QyLUzXMnN84LPvbZBtFzu7Zvk83jmKzBmUoS33XEZDCU/kmJV3Bzk2N5MXG//In2jmKQzCSEm6fEtW/JKMrKzKyD3FvIKdXHJ8crkpLitfrUyjJVApXZjWu+bXM8PZmf9DOgaF7vduzlafnH/fCTjxgAD5MYVfnA4tEVbdo4HB96kvkh3wxF8ZiDaca55U17hU6dEpegSkzV6QpqirMSqcxuuPk268Fg+U95pko0LV3crHXp+Mf98F1HTAZD6R/uvsnlMqWYm6yK/22/VnXTqWXum6xO4nlKbp6SFEKXHJD0rJzm7r6+sWkCeUH+pPM8OHKHWl3zkQp+EhBGrpu6CdZQAgAeGoq0psXDc847ftxdmuhpqS8tKckvqa5u7RuY3Tt2Xk4Zk6iob4ah/4hpm83PfCTwRW6ctwdrKL8rMhhKP1SlM3bQ3pKW9DfhK936x3+97mTmLw9qk9erk8byYngZSCAJJxmCXfddXF3/cvItD3KQzvmwqJhhL8Ue52dRSUAQeSk7pwtDCcDPTHT2y00n6ybte/0V6VF0hhSNMop/8BtSNc6a3c2n2VQSEEReOOp0wlBK5r4bSm6HIFPq32krydGVFkEyLJUq6SQPJPwLu5cQXb4Y6Vk5tJvkeNjzlBHRNQusoYQ9kkqUYZid08WIAfATo+1Yv2bnJi1DJd9xGlKUCHndG/ay+w9kj74z0QX9hz/YiMlgKMXIVMV+YXcI8rOm+7kukuQZypHTSR5IOLeXkPQ9z5u7+zj72Dc6nV9WRSAvuCMkic4fLHJlialw7F399pnJct1lvTTtHTcsL5Q8aU3PjKUys8SqNR1jVSsnJjOTv21rs/JlW2pqJD8boeot4wgXWxTE6yTlZD6brl23mk6uu2wfTbt7xrE+nT6OH5LdXjm7Xr9uabNcU2tx3ExW8aOiayr52aSZqnittmuiZtViOrnh18JSb0py5eT6IlqsJu+DSNu8BiEyOiaxqrf07UHL4WWX/ap9/7h+dsJQpuKFRCVo05r6SqY3mvacHfbPXdaP7XsHdVPDueVpcn69jyI15XnPxypmNxr3Ljup9rugWxXyiN3Bu0/lBADcGZH5I4esXTueqAnygnJcSlnPq5nNbbPT5vhoOT5afjPcWKAW+nYbJ5kq1hoSmG+3vuHl2PL+/sm53XFlOTGvLUz1GHNi+TOguc3Ty4tr+7vH53bXtXiauTJ+RdEVb/jZpJkqpaby6dD89q5ZpLrVrkRXTq4vosWqu3ZF2uY1COTcnmHsHF1Z37dZHFdWy+nW6tJQT4X758NNVIKmpLVneGF5y3JsuzpzfrRYLOsr8y86qlLZHwhftMXdAwMTy8sblhMH1X4XdKtCHrE7ePe9s8lgKMV4ZkgiLnCcuorNofkP/z7j0V+Gc+Ukz2S+grwmpP7zv6NzEsbZ1TmkQLoWQTz2kVhJ7gh54bGYdP5gSDLkvT3jmw8XN8bGeH5+8v8kTX3FjpD3Ot0rLkvkn0E4S3E0rM7sNB595ocQzmyVdck+URVvOk+vXFh/Z7N97rS6j3CMlVMNy8udXa17v9e0YzNZuIok2KPkqtJtzrZ+7jgwN22dddjdDbNftq5vGqemcgvdt2+GaSi3niXJk7Ujx5Tn+72m0ddVJzfWnPLyeLhufFXAP+98wxG7o3efXywA4O7Qv7CwNuK0L1dOp4oi19ZMmO18v0K4XBuooK6Pc5bC/qIwq3XxzMEPIVzvv2lU+URVjdovrS4+ciEOh+cIx1QJ1bDsjuX5d1tr2+b9k4szNiqwPYpKKRs94vpyZrNtbx0d2j65G/bp5GBveWF+pKPY7bbDNJRH3Tq5qnJi084fBMdCi++kTHLt/CUvjwfb1kieklf+NxyxO3r3vbPJYCjFWDUy04pVyt9og0jYrE78Qj0j521xPJ2TQAohqaRAuhZBeocnxAwlSaLzS0aRaXjvslOmlUlDQ0VqXpYq25BWUZ/zfKZufTKDvtFTWViyw1oW81Zxc1FSWkJscqqqpK3k/SVz0LaXn+17s47LhDnbjn7vtpqrntar9amxqkRlZm56x0yjhbUX1ndZYgvQAng4EaRGJWTOXrGOZyU3L577wkQl5eTMsg77dEnHc/wBig1kKC0zhqd7XWeXjRP9WVWFyfpMVX6ptrGvdO51Jr/7iVlvr0yrb4s66tJyNXHJyliNLqWmr3qXc3KWwtzH/Cp4dYk2UgSJUXf27lMlAwDuitTW9+yvu+1NEd8H+EFpGDKzzsDxbqAtP0ujTExJziprGtw6YQ5erT3N9Z2pcpmwY7PdcfFxa+Z5TWF2iipZqc7SV/SMb12w9uLjbEMKVZFPeGCjE1KUsm7Jyjqeuc78OPe5XW9aZiduL2fqVEEVG8hQXow/eb7muD7ZmH3SZDTk5GRkFxZVtXaPLA/W8buvbFqxmrcnX/ZUlxjUKcnxqnStoa7nrcvJ7T43iG/uE6CRIkiMurN337tYGQylGNwNlPrHf6UNIuFZRuR0Yex+rYrkOapPJq8JHWmP6Jyx7NqdL8HcRtnY2St2yZsk0fmlEm/aYX/vrxte5Csk/Uc2IvHpMRtyUJAT7ZMUm1O4wU5BrXb6/B/LZSkIx8WeqT43iuqFdja1tjWBl+QbHsjohBaV3F7HZLupbXZf+HAdbzUy85S/17X5Hg9QbCBDyWCrMPpOx4oQHS+Ppg5GZfY3nTHlNPdm0CEuAjRSBElRd/zuAwC+Cvkv2AXUztVu3zOYPyJ0/VuMRbhe78vz/XbH6Z8fMFbjfKc1zfu4y1KQkM1Xxfxvd2Lt1Cmb+q5DyUvyDQ9kdEKLSmlZYbLZl02+tSc3LDGbKDlWOn1/cQIUG8hQMuxPNagE7keikMfL6Wxy/ZMt9p7XnRfpdIiLAI0UQVLUHb/7bmQwlGJ87GB2AhJb380h5R7KWHatN8lGCqRrEUSdoefsIw1JovNLJLtwl/2x3+pPkuQmCYbiAyakc7pG4CthXOpirMNpofc6IbelaH9dTjukSHl5mZVNHSrgJ/mE+zc6FBKjiiY6WK+Tzx9DXf4W0yrToMHneIBiAxvKjsnKGH5UUOQU7jHldI2VUkluAjRSBElRd/3uAwC+BhWjZ+yP/dtmX3Pgj5wBKxNytlAZx096FFc/zd7At9uf53XcbSmsMyX8m3AI8pJx9tru6XgeP8kn3L/RoZAYVTpkZbJt9fIXrWp7j5hWnYzl+BwPUGxgQ2mdK6XHLRj0/exdCo43RVSSmwCNFEFS1F2/+y5kMJRifEdDSSisMNJukhykc0pG3d3A/tg3dqfxk8TQPG1kQ2qbBe6tjEwy1bKpDR1em+W6LMVNZY3Qjb3RWsMGZ8IqqSTvcP9Gh0JiVMkUayj38zJ4SekG1hp28nxbgGIDGspP5VWCgyCd5JwVkSo8BGikCFKi7v7dBwB8BSpGuQUcb5skG0ptxwYbsmyiVkkSVE3v2NQPPV7LB12Wwj5dJ/jt1jw5YELO50T+9yvJ6FBIjCobYW9n/NDNv7smrYe1hmdThT7HAxQb0FBaJ4yCgyAdlWlTpAoPARopgpSou3/3OWQwlGL4v+TNIdFQBnvJm0Odkdn9aoyzkuQF+ZPOEwwFY+wjDW/Ky6kkMYpesw7sqqyUSmIoLWWXkvhMN7osxUmB8GZj4ibMJ9yv0aGRGKXpYS31VWWN3Od4vLGSnTdt7FL7HA9QrHhfXIFB7aYZFZtdmd07Vj670bBubjlwmk6uOu3cghuhKjwEaKQIUqLu/t0HAHwFCl6aWQewIna5maZkkJ3SOx2toJIYikbZ6UaL93Sjy1JsP8ul8z/yZ8J8wv0aHRqJUentH1if96bO11LHV06zHdl4mupzPECx4n1xBQa1m2akKre0tZ9Zu/1hf+vAemxxntqvHK516HQVHgI0UgQpUXf/7nPIYCjF8L8oh0OioQx2UY6H2tYuzlCSF3RqkJTPsNconSWFVJIYnpACKomhoOSIsRRd414LigM4FXETJilcBKlRKv0Su8xle0Krca8miU1NHzEzB+3r2WlBFSvelwCBFAk5uTOnnsXgXRZ78+Zew7v12vmN5hORKjwEW5f0qLt/9wEAX4H0jnXWnZhHfS/s+qFqnN0F/XhQ+Hcwb+iMKdA5XXx7MIBTETdhksJFkBqV1LLGLHM5Pxqq1HrO7SmVE1uMb7taauPN5gQoVt29J9KXAIEUCfqOxV3uhgSC4/xw72BtbWNp6f3yzrlIFR6CrUt61N2/+xwyGEox/G8bxCHRUAa7bZCHOzWUrgmnT0HMUBaMs2torkrLqCSGMu6GSNMgPUclZinETZikcBGkR2maqw/Z1SR2Z/PqunFxp/mItZh2a2VdCj9zgGL1BdsifQkQyEOVNfuRzW83Pq9PSVd4LeIJNFzRwdYVTNTdv/sAgK+AvHCEeaSK82LX5LOQwg/FgxbGH1hF5qiKx0TnqMQsxfc1lI+i0uvmbOyy5avj3Z3FxbX3O2fsSupP1GZGgYvVPTsW6UuAQB6JDcsWJv/14dJAjUGr8LqzPNBwRQdbVzBRd//uc8hgKMX4jhube7hTQ5ney91D2dDlO/nvB/dtl7WtQldSXIumBe+iE7MUgRxSgHARgomKUrcYmd2Lbrpsn7tsV6Y9Zrv1DL3Qju4Vc2yxhwbBmw3kVeWsoxLoSzDtidT2crcqNj/XUwtZskQ9q4eg6goq6u7ffQDA1yDGOG9jf+/Xn2aJb0PjTZppjcnvfNchdId0MrdoWvAuOjFLEcghBQgXIZioKE39AjPtZ3dcOc6vrBbL2qLgduuE6tfsFeeNJ/wFmizysomPIn0Jpj2RGV2b7DDuDmRS6xp1fexqIYEqPARVV1BRd//uc8hgKP0Q8NGLUgxlCI9e9OAxlN7Q2SRiKGIX7XZv9Cbyk8TQF+4wIV0ztdT34VGMcYm9Smst8l4LFsBSfHdDqdYvfOx2OKsbUwXOMjz830SYP9rGOiqBvgTRnkeRpdPsMF6WlFBJCc1GdtsggSo8lM+yF6aP8gVdrxiSWnjn7z4A4KugqBjldu2xrzakStrEI/O5mcnvWKyi1/nGu9b57r/I9zoewFJ8d0OZ0rxqubg5nmtJps9XfFw3EVrHhKboogpfHrODKdCXINrzKLJijB1GyzB9kSexfoF7VCZdhYcqzvVu9gq6XjEktfDO330OGQylH6rSlcQL2lvSxNZ6BzSUJJCEM/diptN7hgfmbg1lRELXAft7f13/PE985b8PynZ268qzo8I834UscbmFG+ySkfUn7EOo3ASwFN/bUOYOMi7waDiFTqJxT8K1T9XwhytGm7v8ia1UqC/S2xPtWSz1uaaBt7mXInXgRLQKD4ZhNvy6qlZsbzAhpLXwrt99AMDXQZ7S9oGbpLTvvqnSxFEZiE+S+0xepnW/Z/zK9WZ/Pn8nwv59difCvQ6t9/EAluJ7G0rDc2YzTnu/gU6iSW7mFjJb5it8zmAEhaZznd0jXbAv0ttDKBpgryw75lt4z8NUFIzuBF6UU/CCXWtlm20I5nGa0lp41+8+hwyG0j+b9czV6uUyZdwvf6L9on9DSUJIIMlACqFLlsLdGkpmP+qCD9yTcm7all/nNZSn5mYm6XNSSyt1zX0l09utI9RuPgp9/gf2LkPzdklzUZI6QaFKTip2PyuFWA2D78cxgKX43oayeJKZdLTvFZdrFXF+tj/gSMx6yz2r5mPTeKcmVxufHB+r1qZUdZWuXnSfOU3HIn2R3h5CXHUFt/Jm763eoIqOIQflcfry3PHjTseF6Yj1bXQVt+GVFdzzh/aXckt18ar42ORkZVZuqj6Rn9MbiS2843cfAPC1iNLWum4ivHE6TpfHX7bUGYuLSooq6mtb+/onVzfMU74b+ih0vbvsXYaOlaG2/EyNMjFZlVnWOMQ9K+V683mB77c7gKX43oaybNhGcn5aG6jSJMZFBroApWxc4Z5VY9mabi03aFKT45I0GoOxbXTbfHF9fMKuShHoi/T2EOLKp9iVN+eWyeaCRAU5t8ujVTnFHdOb9hsz88gZwSpuw0snuPDT6Y4KLWlhYopKk60vzBG6B8mDxBbe8bvPIYOh9E9KvMJpSiemcCwvRtBTikEyj7FrcUg4KYQuWQp3eg8lS1RyUf6ik71IKoSQcYlKLi/+wD6xkIf1qLSSutk5gKW4I0OpKDDMrtYubzesH7fsnbWfco+N/tx54mzdPWn6sFu/vGZ8055EB8blFW7STxj/vcvibF5dLu0sVfr+zz5KXV+55967x5szp9GkU79yCvdFYi9cRCQ0rrKzjFzJN13cZW7HRW2XPqljT7gKr3Bl8zp7ad4XXkioI3an7z4A4Csi11YP75y4pr5oKO8SlVLyas89G+fNx83RmiT+Ld0BLMUdGUpF3pPl+eX1lfX9rT3LoeWSezK148x5fHSyvb27urq+sDDfoqcD43L6D7nM3jgcF8d7OzPDT4rSeOd2Tc0bi+ATyY+XurTFI8fCfZHYCxcRmtZ5dpKSK9nu4C5z35jf9ep0PWvCVXiHmxbZS/O+8EJCHbE7ffc5ZDCUATGkxF13Mo/qXi5TJv0qfO2bB8nGzU2SQBJOlymRuzeUDHKFsqy96PVqw85Zu/Wmy3Zp2jM3riyXPm3R6ITWphBiVKmtw1UrJ20nN13Wy7btzapX7Wq10AxfAEtxR4Yytr6atjg8bJP0gscYXUX2yJ6A/XLT8b5HxXP/CVm6p1PGtVOThYzVVfv+Ue3rV1nso8AVTetMFN0Xib24JSq+pKf07UHryXWX7VP7gbl+eji7IJGxa4YRxmvSVfgQrax4VrZwyLw79psOs735/UpFc6ZPnlBHjOHO3n0AwFdGHpdVZ3o1t7hlJt7C7rg8MVu2NjemR180VubE8TMTFIkFHS+mN7fN53bHR8vx0bvpkeZijdC3O4CluCNDGVszR1scHlfDpVRgfGZp28QaM0kpgm2rPcv33B6VqDP2jyzs7J5c2J1XVsvp5ruZZ43so8AT2xaZKLovEntxS2RqWfvIyvqh00aqOLVtrS70txUpGbvG7R5KV+FDtKaqa3x148hpd36y2xwHO1tzUybfJ/GGOmIMd/buc8hgKKVATCE3T3nWojal/t3Puu84dhXOGbusm4SE4ybB3fJYWTvfavvSbTms6GnQFOQk6bSJLEl6fXJxtX5wm90l58bYJLTwDQAAwH0kIq1h8uDKeXGxMfXMWFqclZmlyWDR5WTmlZW3jL1n5/nsC61ClhrcGTIYSomkxCu4+ym/sHsJjRtiapS/ZUb8JenXPxPIC/InOcjtEMTdNxnylW7wFUior2ae7HJZZRTzi2l5a8xEXeeI126uAAAA7jOJNbPMvomWmXoxv6ju3mEm6uyTXpvmgrtHBkMZFFXpSm4vIT+QDKGt6QZfk8LX7ATkql50e3mlfoExlO3DRVQSAACAe0nxILtl0nyzikpyEd+8yhhK60Q+lQTuEBkMZQhkqmKfGZJWjWpzs+aqQ0sgL8if5GAIu5eDb4LruS+WwtzH/CSWKN3TejvJ8Lux2e8aOgAAAPcH13NfdvsNwpu6y7M6165IBsdSm9jlKXAnyGAowc9BXFkZt8vP7kJelT4uwfW816g4Zby+JPPJXCO3+c7emBqzywAA8KMQVzzG7vJzbp7qNmamJEZxu09Ex8Wrcwrr+15vuvbuGShKoGLBXSKDoQQ/C4qiIZdrdC1qvu60e28J9Hv7+oROK7TADQAAwH0lsaR/4+J2UfP5le3syuG1fZLDujdkzMC5/Wsjg6EEPxHRyXmZTyerV45azVdd9s/d9quOY1vT6lrVcL++XBtD5QcAAHD/kafkNDwffru5eeiwOj4xz/K2nu3v7CzMTDxprtIoJT2OEoSJDIYSAAAAAACEgwyGEgAAAAAAhIMMhhIAAAAAAISDDIYSAAAAAACEgwyGEgAAAAAAhIMMhhIAAAAAAISDDIYSAAAAAACEgwyGEgAAAAAAhIMMhhIAAAAAAISDDIYSAAAAAACEgwyGEgAAAAAAhIMMhhIAAAAAAISDDIYSAAAAAACEgwyGEgAAAAAAhIMMhhIAAAAAAISDDIYyBDJVsc8MSatGtblZc9WhJZAX5E9ykCTR+QEAAAAAHjAyGMqgqEpXHjdrvnRn+IFkINnoWAAAAACAB4kMhlIiKfGKzXo1ZxltLepxQ0yN8rfMiL8k/fpnAnlB/iQHSRKXh2QmIXQ5AAAAAAAPDBkMpRQMKXFOUzqxiWctalPq3+P++o+xIpAkkuGMtZUkhATSpYHvRU2l40u3D3t5WjqbMFG5z+qPPnXszGSk8pOAIBgxAH4QKt7cOC98WOvS0dmEkRu6V+1Wm3msRs1PAoI80BGTwVAGhJjC605m0nG5TJn0659pE0lDspHMJIQEwlN+deSVcx2sQeycromhUr3Iy51drXu/17RjM1k+B2soE3qO2JDfKyoj6NRvTdVbH2d89rnzxNm6tV3zeiC7Qhsjp/J/D+7XiAEgiHHS10iJM1fGj733KGombGzjzxYq46hUL7I7luffba1tm/dPLs6CNZTavk02xDFZcw++6bw39PrMfn58dLQyP9PXWqVR3o9z4/0asTtDBkPpn5R4BTc3OZYXE/fLn2jvKAbJTEK4ecr7eO1b0bwelJ26xyh0U9cuX2VbykykMwjhMmRBjIBrvm1zPD2Zn/Qd4BlKHz6blvtSk6iQb863GbEH9EkG34OHbChjjPM2V+OvpusknhNcAxKEoeTm26wHg+Vf85suFX9vqMO83lMgcRy+Jt9mxBJNS0G9j2Ejg6H0D3ff5HKZUsxNVsX/tl+ruunUMvdNVifxPCU3T0kKoUsOSHpWTnN3X9/YNIG8IH/SeUJGrpu6eSA/wwmNNXbGRXWxXsrYGM/PIEjwhvJ+4Wq/vaxGm6jTJmZmqgylGS0vKtcvOVvZudQaT0c9QB7QJxl8F1Sa/KJcH/oWWfNxONnmezwzjh97z0msfXvFuKjza/Lv2WKrtPYHbyjvF672H4zWaTKyCBnZhUXV7U/f7Fk4W2n/0KCmox4gcuO8/du+jzIYSj9UpTN20N6SlvQ34Svd+sd/ve5k5i8PapPXq5PG8mJ4GUggCScZgl33XVxd/3LyLQ9ykM4ZEvLSMvOPbKe8iG1aY6yk9W35m0/ESHUtt/m9suPmgRjK08Jc3+OKNP38RzbJUVL4mB/18HhAn2RwX3A5kt3nBirphyKxdcFJOnI5OT5vJT06X29SUXkEeCCGknr7FOqW95ynPBoqfkgXmkWQF446v/H7KIOh9AO3Q5Ap9e+0leToSosgGZZKlXSSBxL+hd1LiC5fjPSsHNpNctzNPGWUYbj1h7ZTtyRlLzF3Q3bN1sfVrTDO8mwzR8p88EM1lOyb28ZOUjY/0/GjHhwP6JMM7g1ijuQHI7Htg4N0xLlck9I0xzjL63ftUn6GHqqhJKeLghdH/z979/XbyJbnCf4/Ifqhprum61ZPVd2ee6urpKQoQznKUZShvPeO8l6plJQp723KpVJeKS9RFEWZVCoNsCj0S2Ox2JnZhwZmBugBZnowwM6+7glDFyeCDFLMvErp+8MHCYlhGAwyGV+diHOCbaTcfaUTLvXoqLJ6Dr/1+6hAoJSSpAn5wo4Q5KJPd3eikswzkBpIT7Ihi3NjCckf87y2rYuLj13D05kFJQT5gXuETKLnl0dbmN49UjS7Wb1308IGDhETJfb5Y1urmAc/V9ZHCldlE9PCzWNojuEf4YLOaitzvjUqU/9yoeqdpen8ruX4zDA3llYYo6JXYhMUHmV4VbhwUH9022q+bTo4qpzs12drAug5bWLbDBdkAz5V1IcrI+vKmZ+/GFpjhbPR5AZKbzqGB4Tr4mq68qY3a/Yum82fWk3vm/YOKicH0wrjAqmZbQK1eSnds+Vrxgbjh9aLTy3Gy/qtnfKJwQxDbng49fe0dKBUhtWUsZvaMpIvnKTyaieH6nSt42WrxsbTj8IPDKuq0fET4s0eU3r08j39JNtwO22xLpj5NSiipDP/9UHd4Q2zH/aPq2bHMwo0/JxyPvzwWEknEp62YZU5iWxZaY4QTrKJrX/LzrPeHsU/wq12pyGGfEVEpdUOTK6dHJluzeaL3Y3l/paSaPZjKSEoLK2uc+ztxsHFmeXWZDRtrbzursuNcPF9ooxrXGM34E1zmDKyapH5+XKj0/pF7YLcQOlNx/CAcG1effvgwvK28fj89uLyvdFo3FiZf9lcEuPi5QfHZ9f3jS292z25MlnuLi6ujw8P3y7OvWyvy9JFUN+NLt6+sIp5dlMvJrOFk1Re7eQwbfHzgfkdsmHmK+HeYKy2On5CvNljSo9evi63ra9vfHl503hqET6XleilwNxOWzOEM78GJZS3DK9s7J8bmf1wtr26NNBeZP0mdPXhVyBQSnmREUlS4Ch1Fpuj/Yd/l+D3+8G0QDLPRGYw+ZmI+ePf0XMSo2zvHLJC+llE2eIjiZLcI+QHW8Sk55enaKrl7JZn+swedz+1mKyPcEYKHRZRJ7Ankdu2uyIkesZFdBwzM5jfJtuuLOaO2Wfj8UnN5Ufcszj6UNOfFyK6Nk1u9lvuXK3AbXVfvvgiKr/w1gNmnov1FGZgmgj9Att3e7OT/V/hktxA6XnH8KjqsjP6VXDuqnuzxL43n6lLpmvP6fk5n6taqMOAjEDZ2J8hnOTFTo4qyd/h+jx9aj44qdm+aGauWGWZb+o3tsonJ9Oygx0W8XyPefryPf4kW3E7bftFZGCUbuiYCqOfy6ptF5m5//DDo+UikfBCytmTyNdH7YkSH49Erhvvh9c1tu9GbrU3A4XJdYsXTNuhM9P2SHak2NoCorJ6tvnr/wSLbA5na8QWIbSdG8w8d4v1zBmbsNpV9hn3W3XUnEJyA6XnHcOjKuZv6FfBOd8eSg+jF1H5R5eP7DJXgoqyrHdECxdx8fZZA+XpSKpgkhc7OSC6YPjIzM5zcX6+s310eP7ButSH04O95YX5oebcIIdFPN9jnr78kmHzjYn3nvuMWSy2RziTedSzWHfaUVtioKZ4fMtMPdFCXYh1ZhcffgUCpZTVcqZZsSTsZzogElulEV+oe+S8zg2l5yTISshUskL6WUR1Do5LBUoyiZ7fc/LilCp7rJGZ7SIvR0lPVQZm5O4xR+KWyRL733D8mq+bjj+3bM2ml2WEx4YHa6Iicmpz31yyk27La61/stsEJ2assqnl9KCwuThaHxsSFROZXpgydNDELPLB0JYg1oSWkLnJRoHlhhD2keCaDbZrzkmWnp7Zmbw94NUiEcmvbxtXX+c0V8aladVRYSHaxOiyrtJdrnnPmJ1GXdoYXlVqYl5I8+qYvjA1PC4iRKMJ12fEljZmjazWHCwl0X+KuAiUaf3sWeAvlU4Nh97t5PCk2VtmkaOVtPRQbmpAZGrq7AXz4NlSIr1hjmTuMS9evo3Mp3Cc2TiT8Xyv9eKmerwnuSQ7Sp+kyczXVXflz40lOfS4dPPhh0fMRSKxCsztP2HmORzMF/t4BKb2GZkjsfl1of2Sbn61J8YLi/lwrLUyVRcXFhGlScyr6t08ZiedLTVa28htgnUdO2xqudoYa8/PSInWREclZuY2jG+YmEVMa53xYk1o8Z37zAZcbVRz101GNCyyTWg7L1LomZ3JDZReLBJWs2I62Zl41V6alxEbHRWqiddlVLa/PuFiGdnhVHNjRNkcm0FNO/11Jck6bXhEVGR8SmpORc2Lqfmd82mDhnoWF29fRjd7FvjyrVPDoXc7Oaxyic1V5rmWTLX1u1HfuHzIPHgzU0lvmCOZe8yLl28j8ykcZ74e7ehes9ydbs521JRnpKYy/ZlK6tuGlvsro+0zS3/4FQiUUrgLKPXP/kAHROJFgnI6O2S/QkPmOaqKIj8TzXF+9JwhbN+dL55cRlnd0il1yptMouf3nNzDMJ/YWqbKqP9Ofqr8aTaIXOblBdgf59dMIsh0vCAHhOiz1tkmq6PR2CCnSWGNO8zjFwdZqYIPqCq618RMMi0n0f9z9K9qmef6XFlv/XbQNFSwZ73re/TCmQXk7gFvFlGFBtJn9gOSemrYbavtTBAukjfJjqN5nCmagwOpL1mVdKAMjEiYvGImna/Ym41Z3uzkqKZK5lk+VtQ6f/9G1Zcz7ZSfKxvosx4OZO4xL16+jcyncJqZOC8qj6LSs4CrDz88Zi4SiV388wPmSG+eL6J7AQYXjZwxazgeLHD4v8avlkSQkSLhd2PSiz22PemiP8d5jLnY1hUmCN5tdKUL/9tmDu0zi7yfqaKHnknt3GOey7LSHM4/ElWzzJ71PuhPcvPJ9yiIeLhIYGgg/b8pUN+xzW7bu5fxwkUKhtjWsu1O0c4Dgf4ir0Xq7QsML58/YSbdzlU7xCOldzs5um6FeRbzcmOY0+NRhiW2Z/1Ki3XPi5K5x7x4+TYyn8JpZmJ/0qCh3yNnUh9+BQKllPfNzEhAUv27OXKuoQxh+3qT2cgK6WcRFZug5+IjjUyi5/ec7MOwmmvzu9hgzyk7UidNs01uu71OPQetx+yaTpGrngPLFtjzjDf5BY6tdMlZO8wizaOFIv89YtsNzCKfyqodz6sSz6JenrMJyXHbwvmz3gcD0cLWeGey98C9FnGSms026LbSlzam9bPdaG5KK11+BzkSBMpA8m2picwxZM2auD1c2ZLovDO92sk54xJRLzFzm1mbyFl1RzL3mBcv30bmUzjN/KV5otjlAPg86Q8/PGpSicSZpmGRuUztbqlBeOoppHKRbe46fZHi+C1kPWa/69HSa1NXTl0wU43DRY5/QSV2HTGLnE/nihzjtY3rzCKWhTrBd6N/2gAbg5y2zXrW29ST7vq70aMg4vUiTvQ9bIOuZSpHOCmjm+1GY5ytcc5tLgjevkBlcERkYl5519Iee1mh8W2HznlnerWT8wfYxks66uk62bXRZ9WdyNxjXrx8G5lP4TTzpWkun/4DiSbx4VcgUEr5BQMlkV1UTqdJ8iA9p1fkH4bVJYWnzDFY2K4W01TJ9YBpi3N6nF/zTX6eWMNSZEMFe0Sv7nD4So3hO0CU14gNkxZYVMieD23sS3d+PCvvgHm87U2j438A61lvS14OdWbZkfw9cJ9FnESlrrAbTPcXCU7J3mavBTw/r+htiNMFi2Q+AXtjG+XsuLhRL/xm9G4n822H++kJgkXiM9aZ+cX7/djI3GNevHwbmU/hNPOHwhKx05Q0+4efmgSPmLxAqVQXjDPDspCAGO/0iY2tXWHb2zYFPWD41RqHC8W+GzXVy+wRfbvLoU9hbMMqm2YWG2xXsDkIzB97zyxyMuycXQLTB86Zx682a6IcHree9T4ayHP53ehREPF6ESeaxi1mg0X6iwQndx+xOfh2f3m4OjcxyP2Xg72xjXKzPd2aJAxM3u1kvu1wvS1JsEhc+y4zv3i/HxuZe8yLl28j8ymcZjaNl8v8brR9+B0fVyBQSnF9ypsjM1B6esqbE5uQ1NY7wkVJ8gP5lZ7HWx4chq0NgUcjMQ7nqfm76l2s6Z3PHVjXfJQpvrX5+WyHleYBh/9sWSPsxWrujDl1swjInWBPuH8WXikYyZ/1bhrOo88723mwB7xYJCAkpTilc6RwdtOwcVJ3cNl4ettitnZRogOlyi8wqa5wi71akfGhYWUmqyYnLFTswMORCpRH0zqN2FJe7WSllmu5vC0uC3R6PLS8mA2g1a471MveYx6/fBvZT+Ew83FmMjVJnO3DT0+Cx0tmoFQ94xsCzb3ZDuep+bvq3S3UCRq2+dVudQrb+zk5w9zVcmMOrf45fUY6FVGuZpy6WQQWDLJLWYRXCmqql9ika5zMFv7B6cijIOLxIkpNWn59D9MTeX1/+8B0bLw8M99a+C7SdKBU+QXrDeOH7NWKDNPR1uiL+kxtmPSXg1SgNI8UR4kt5dVOVsY3sS2XpqlKldPjocXT7Pu4+ZzqSelI9h7z+OXbyH4Kh5m3nru9xJZn+/A7PqhAoJTiulMOR2ag9LRTjk1FfSsXKMkP9NR78OgwTFIFE9FIqrC1+WfkcN1xZsqFpw75NdNtWpysvCNmwdZRh+BSOMO2KbrjlMMCtCP8LWEknU5pXdxF3aM94NEi4alpM2e2HsStRnPt1p7hzUbF/GYt29wlGigZQZFRht6SdfYKSP4lHBa354vft5PfGOudchJ1Me077JNelZSL3SvIm51MaPRL7IUNO+M6rfVK2ZCY+KET5kHzRkoc9USOZO4xjkcv38ajp/BoZg7/4aceh0dMbqD0U+qa1pmIdjZdae3MG5j6iuuOs1gsvFUVv1q6TYuTPnDBLHg5nWt/sGSUGT/SLaccFlAwKdpb2cHVcKGL70aPgohHi4Trmxd32TP7DMvV4d7B2trm0tLb5XdX9AtxEByRXvdiZvfENjTP1eXmVFd2rOiXA78xtjvlaDNfrLAnu0+mq8TOz3izk4nIujXmwoaro4Fine27Mbp4fJvZyNulBtftRzL3GMejl2/j0VN4NDOH//A7PqhAoJTietggjsxA6emwQTYPI1CqQpNm2VRhvQmNKm+S646T73jJOYdfs1Q/68ICtmWraSDL/mD2GLu29wXFwUHh0kIcniukrNhIhSEhql3NkWd7QP4imuRZblwec3l3VXS849lbbTp7mpgKbQLKkJTS1N6VGiPfotm01Cgycg2/MQ6dcoJTsrfYRQ7G4+jbMnmxkzna2tJD9rJU82Xt6kb54rvaI/bDYDYVV1IDdgjI2mMC8l6+jUdP4dHMPO7DTz8Oj5f8QKlSVy6xqWKjOpp9JKhwiG3uOh4uov4r8avd7hJedcfJG2Vbts5GHS47ye1nO/cYR8uCQ8OlqR2eS100eU2FISGqXc2RF9lC1iIRhmU26d4dLvWVZeiCHc4gxbayp4mp0Cag1KQVNg3PvbviB106W6/R0V8O9NsXnNx9yC5yPpAXTs3vxU5mBcRXzp1z56OPd98tLq69fXfBXjv7YX+q2uXIviqZe0xA3su38egpPJqZx334HR9RIFBK+QUHNrd5IIGSJMgJ9oTpQQbzt3WwboIdom+vP4r+NPNrvissFLtMR8P1Gv5S3e5w5WUcd171S0WtWNOamKDyJbY17mNFe250VqZQzvNy9sR663SF5JkdD/eA3EV0ndXsa6nt1lMn3PluMe4CpVVYQuLAIduseFdmoPYMHShVfoF5k2zvls+1r9KEz+75TrYJiK0rZ+L7x9bzT63nt417e+UjXQl6seuNBOTsMSmuX76NR0/h0cxW7Idf+CA8ZnQikRZUMHjKzLzRwfwJHVQ6x56dNHan0d+N/GrPx0rEzldG1b5hU8KW4zWUWu686uVyo1jTmhh11TTbBGheepElvEc5kde8wMZWy2KJ8FJCGy+yhZxFElq32Ney25dEfS3z3WLcBUpeQHh8+dgm2+h4Pl9H7Rmxt09dMHTMPGjZG9QLz6p5vpNtArRVC0zbqtlya7m6NRmNa4uT7eWpIW7SpEreHpPg5uXbePQUHs1sxX74HR9RIFC64PbWi3ICpRe3XrSxBUpH9GyeK5xlD9VSVzpSApOz2F69dT16ZXh1GTu0tVPHGhv+mM3OSU0lQZB93us8py47Kdm7zCItCzVig37TQpO5FlPjTHwoPZUIjB9lmwnP3yRLtQp7kS3kLJI/zXWyzsujJoXXcjfykRsoVczpM27PNA1SnR/FAqVSFZE4w77wi4NMvSDQe7qTbWL1C2Sdl6XVMe6/JQXk7DEXXLx8G48+yd5tD/Phpx6ER0wskUgK5MMQMxxPRMVrdgxqp441NvxqmTmFk9ggyJ2WHSxw/G5M7jlhFrG8rYigFhGjNiyzjWTXo8Xi342qwmm2mfB21iD13ehFtpCzSNEI18l6sICaFFG1wF7cKTNQMgKTu9k9YxrPFE4Sf/vCKhe59tGN56mC70ZPd7JNdO0qWefxXF0UFZHdkbPHXHDx8m1KxthT5FLX7DrzbnuYD7/jIwoEShdK4sNIFjTXxUn19XYbKMmCZHHmWsx4+iyke18tUGYMsi2OdyUVgvEmJKnrt5iD8d6r2Mo37CFcYiwVa6BsO1lIFFwBrdZnbXDjUA7HOF/8EVq/xa7zosQQLZpaAsIczo9ENlSwibZxMEfYDmebP2ecfYGfK2olRqLxIlvIWYTv+/KpzCDYscExfaf8nqEDZWiw+PdRcC53yWlDLzU6j3igJH9tt1axO6d1pTnMuY3Es51sw43pczTIndHzjJw9pvLq5dt49EmWuT0Udb3wEXjMxBOJpOjmZebIbezMqZllb5lNDyTEsgbK68up8mjBd6N1HEpzb5ZgHMrmN+wVfoczteKjAwaGB9mb3DTVS+zNWk7HM0VnZubPG2CbVC1LggEUbbzIFnIW4fu+WObrHG8eQwRnDb+T7JQTGqSm23qJ4KxBM7OIsPO1SvLtC9A1rLJx37JVp3Vep2c72YYb08fck0FPckvOHlN59fJtsl6yw4+fzxoEO1yMzO2hRDc7/qpAoHRtq4o5W71cEKb+8Qc6L7oOlGQRsiCZgayEXrMcXy1QqouLuGsQ95fS8hNDNaEhUVFhyWkxeulxqkPLipk+JQdVb5nz3S2zleINXfwx+7bZ9KVldymzIisyNjw4UhORVZOzzN0p56bMQN0fOViXusR18r02jHUlF2Vp9IkR+tTovLLkpt78ucPGre5I68xqPhid5aSLnVXn8d2GBIMK2XmRLeQsoi4t4nre7L3WZ2hUTL/4QLW+MG30uMVy3cjdi5IOlCVzzbsbhd3NiflpEXERwZFhIXHxmoK6nAUL+4zneVnCy3ckA6UqQPOC7TFjeV9WLbhTjgc72S53ghk5yLyXW6gLpq4ickPOHmNm8/zl23j0SZa5PTTxxh54pCQSiaSw4inmvOfG2jZzvvtiuVTsFoK21ZrMN5eWk+nnhvREbViEJjIxt+LVBnenHON8HfW5DdY2rZ2xU082Z9prStNTU3SJqckZBUWGthfDy5vGg/Yk68xRzW/YZLb7MlPsrDrH2m1IMKiQnRfZQs4i6sJJtufNlXGiNisimHw3Bqo0qbnN01vmjycnZjZP04GyfNx8ujjWV1depE/UhkdEhmq0cSlFVS9Xj9hXut+fS305SL59ypRXO+xS1H72ZCfbFQyek0U+rPWVaCPUStG/0iXJ2WPMbJ6/fBt1/ji3w8+mm4t0MVHqiGiNNkWfnSr2h4TM7aE5tZQpEChdiw4NvmyMJ6FwJD1INFNKITOPsH1xyOLRbnqqSvpq11Cq/MNqN9ghBp3RWcdOGd1rts55U1AkcU03f8xeTCnoM4jc0vrW8DJbPImG6VNnziV7Iu90WU9GxKS9ZR/Z6nR9eiKyk8tVO2ncxQbBWRmzqxXLO4aN47q9i6Yz7jbTn1pOL+t3T2vWd6uW18qnmpwSlReLqPzDq1ftA/RcfGzlTnNbrita9ZHNe8zP9E62NeuKuK7sSBP5o1kyUJI9mZ/PjdB5MqcTnNWSu5MdqNOzt7gX7uhzq/GydnU5vyU/zLG7qDd7zKuXb+fJJ9nrQAlPimQikaLMHGJvuMc4HS2R+G7kVztVX9S1IXJLa9PmQIbIf0AiPKlxcV+yJ/JReyI/Z3TLNvvIQWsCvRIHST3b7LIrzfHsI8HpHcvzyxsrG/vbe8ZD4w13m2nLxeXx0enOzu7q6sbCwnyd3nElXiyi8tfWz9sH6LkzW7jT3B9P3nQmJravMT+LBEprs66Ik7fdepH2AhdvX1jOMDtC57VlrETw3Sh3JztQp/Ycci/ckcVyfbz3bmawIyfO6bvRiz3m1cu389c2LrKjrzujd7L9iTwPlE4UCJRuZUSr71qYW3UvF4RF/iR+7luAzMa1TZIFyeL0OmX6eoGSUIUVvShYOGw4/dhq/th8Yq59u1JUK3Jxj52us5qLRweD0c73TrTjj9lbqTF+AbH5aX1vDLuXLea7luMzw+xIWn6UyElVu8DQnIbssVWySJPpU9v5bdPBseH1TE5LZXSs9Ts6/jnb6+VzVRN1Q3ABfs4v1dzQ6yFVpXTsEDifiHNcgxeLMAJC89rzXx/Un961nn9oOjipmh5MyYpg/n7NGGKyJp111DGx1T350xuGHRLCPrZaPreYbuq3t0uHupJSJfqjuAiUKr+QymUuYzUM0fd+kLGTHQQlFqUM7YkkNqvmt+0a299L3u0xL16+E9mfZARKkMNFIpGS2LrJxSNTT4bUdyO/2uXGWL9AbU7zyOzG6bH51my+2F1f7msu0oicVLVTxeZX98zMb54em95fXN2azkzbayujrzpKM+Ks/211LZvM+i2rbdQNwQV0zeycl5sv2LESQ8rm6NghcDuY77gGLxZhKGMKmoZWNg4vzy/JSzjfXl3oacgJYw4KWa+Y87N01lFH59R3DC0sbR4fnt2YL+8slpvTo6M3r8fbKtP5O2gLuXz7IqtnuIx1NJ5FpTEZO9lBaFJ+w/ga00gp4Xy7Kdn+3ejVHvPi5TtRaUtaR1c3jy7Nlx/M55aDd9tzk43UvX9VCJT34lGg9GMzJddOeVEX2xjzZxf9vtVsL5wLtls3WeQ+afLhiWuvYgOl6G0VeThmPx7Pwirm68+/tBkPi9oN2qzUSHbASyJSr4/KLdX377BDEX0sr5ET+wAeLy03Jp/4bRV51mN2m/gYvfAd8Y8zTBzcXl5fb06+KM/PTU5iB7wkElOT0gsK60besrHVvFAv3Qv7EVIgUMoUHRrMXU/5hR1LaDQjqCzs5yT/30f+9FuC/EB+JQ9yIwRx1016fab7gYroOGbC4sV2qovhrBEoH43wqlLmooUb8ZHSGXHpa8wfGC1DDkMxAzw9ifzdcd40uhjNwzeNQPAARJTNMhctGGdER0pnxLa9Y/7AME84jLj8+CkQKD1SEh/GjSXkApnBuz7dD1twdt4+mx5mK12dmkGgfDT4sdBX9VLDi6jC9AvMR8LVsD6Pw+P6yxB8LDij/4xND1LdcTgIlI8GPxb6fK2GmsQLrV1lPhKuhvV5HJy+GxUIlF5I0oS8yIhcLY89qdXeNusI8gP5lTzoxejl3wVlROs7vm91hvU2U6IQKB+NrFE2UBqz08R70wckPmeHKPpcXivWbfDxIB9++kEAjjKh8y07wuLuKxfDEagQKB+R3H62d9FuT4Z4b/rA5JY1Zogiy1KD1Omdx4F8+B1/VSBQgoTwqAhdVEhkuDohPbFztZ7tUdE4WuiqeVKFQPmIqAsKjpk3vW13Ib1Erw7n/5AIUIeF6vOSOuaqufF69kZiH197vPDDT80AT1mEJjFBo9GERSemlvfMH7FXT55M57pqnlQhUD4i6twR9sbrVyeTbeVJ0REBXP8YlTo0NjW7qmtsix8gqS+HvtPj90744XecqkCgBAnUYC7Naz3RbqMDAuUjEpwzwKdGzvldi5m/xTbrc9PGeKLOZavMd0r44admgKeMGszF/K4j3W10QKB8RCLyejYd7pl+dXt+cWvhh2dnWEx7A+UJj/G7Ufjhd5yqQKAECVmvqrdNzFAs5zcNWxuFHSXhcnqsI1A+Lqqo9KTnE6UrR/Unt63mT23m2+bj85rVtZLBHn2hzk1z9fdL+OGnZoCnLKdz82jv5Mp8eWs8Olgc6y7QyfluRKB8XAKjUw3dg6+3tg4tJssH5l7epov9d+8WZsY7aku0ghuVPR7CD7/jVAUCJQAAAADchwKBEgAAAADuQ4FACQAAAAD3oUCgBAAAAID7UCBQAgAAAMB9KBAoAQAAAOA+FAiUAAAAAHAfCgRKAAAAALgPBQIlAAAAANyHAoESAAAAAO5DgUAJAAAAAPehQKAEAAAAgPtQIFACAAAAwH0oECgBAAAA4D4UCJQAAAAAcB+Kpxwo6ccBAAAAwAtPNFBWV1eTVw4AAAAA90eSFZ24vo1fLFACAHwX/vZPcQT9OAAA2CBQAgC4EtpsIejHAQDABoESAEDS3/4pLnnxfxNopAQAcAGBEgBAUmizhQuUaKQEAHABgRIAQJyteRKNlAAAriFQAgCIszVPopESAMA1BEoAABGC5kk0UgIAuIBACQAgQtA8iUZKAAAXECgBAIREmyfRSAkAIAWBEgBASLR5Eo2UAABSECgBAJy4aJ7koJESAEAAgRIAwImL5kkOGikBAAQQKAEA7Nw2T3LQSAkA4AiBEgDAzm3zJAeNlAAAjhAoAQB4MpsnOWikBACwQaAEAODJbJ7koJESAMAGgRIAgOFR8yQHjZQAABwESgAAhkfNkxw0UgIAcBAoAQC8aZ7koJESAECBQAkAoPCqeZKDRkoAAAUCJQCA182THDRSAgAgUALAU+d18yQHjZQAAAiUAPCk3bN5koNGSgB44hAoAeBJu2fzJAeNlADwxCFQAgC48ueMQRIZyb/0JAAA4CBQAgC4gkAJAOAWAiUAgCsIlAAAbiFQAgC4gkAJAOAWAiUAgCsIlAAAbiFQAgC4gkAJAOAWAiUAgCsIlAAAbiFQAgC4gkAJAOAWAiUAgCsIlAAAbiFQAgC4gkAJAOAWAiUAgCsIlAAAbiFQAgC4gkAJAOAWAiUAgCsIlAAAbiFQAgC4gkAJAOAWAiUAgCsIlAAAbiFQAgC4gkAJAOAWAiUAgCsIlAAAbiFQAgC44pc5TALln9L76UkAAMBBoAQAcEVZME8C5c+J7fQkAADgIFACALgSVLlFAuWP0VX0JAAA4CBQAgC4EtpgIoHydyE59CQAAOAgUAIAuBL5/BMJlD/46+hJAADAQaAEAHAlpvefSKD89d+H0JMAAICDQAkA4Ip27J9JoPzVD3+kJwEAAAeBEgDAlcS5fyWB8q9+9bf0JAAA4CBQAgBIIjmSpEmSKelJAABgg0AJACDpVz/8kQRK7dg/05MAAMAGgRIAQNKv/z6EBMqY3n+iJwEAgA0CJQCApB/8dSRQRj7/RE8CAAAbBEoAAEm/C8khgTK0wURPAgAAGwRKAABJP0ZXkUAZVLlFTwIAABsESgAAST8ntpNAqSyYpycBAIANAiUAgKSA4mUSKP+U1kdPAgAAGwRKAABxf/Wr3+im/oUEyn/7Uyg9FQAAbBAoAQDE/X10NdPFu/MLPQkAABwhUAIAiCNRkgRKEivpSQAA4AiBEgBAxL/9KZSkSd3Uv/zVr35DTwUAAEcIlAAAIgKKFkigJP/SkwAAQACBEgBACN1xAAA8gkAJACCE7jgAAB5BoAQAEEJ3HAAAjyBQAgA4QXccAABPIVACADj5U1of0x2neJmeBAAAohAoAQCcKAvmSaD8ObGdngQAAKIQKAEAnARVbpFA+WN0FT0JAABEIVACADgJbTCRQPm7kBx6EgAAiEKgBABwEvn8EwmUP/jr6EkAACAKgRIAwElM7z+RQPnrvw+hJwEAgCgESgAAJ9qxfyaB8lc//JGeBAAAohAoAQCcJM79KwmUf/Wrv6UnAQCAKARKAAA7kiNJmiSZkp4EAABSECgBAOx+9cMfSaDUjv0zPQkAAKQgUAIA2P3670NIoIzp/Sd6EgAASEGgBACw+8FfRwJl5PNP9CQAAJCCQAkAYPe7kBwSKEMbTPQkAACQgkAJAGD3Y3QVCZRBlVv0JAAAkIJACQBg93NiOwmUyoJ5ehIAAEhBoAQAsPtTej8JlH6Zw/QkAACQgkAJAGD354xBEijJv/QkAACQgkAJAGCHQAkA4AUESgAAOwRKAAAvIFACANghUAIAeAGBEgDADoESAMALCJQAAHYIlAAAXkCgBACwQ6AEAPACAiUAgB0CJQCAFxAoAQDsECgBALyAQAkAYIdACQDgBQRKAAA7BEoAAC8gUAIA2CFQAgB4AYESAMAOgRIAwAsIlAAAdgiUAABeQKAEALBDoAQA8AICJQCAHQIlAIAXECgBAOwQKAEAvIBACQBgh0AJAOAFBEoAADsESgAALyBQAgDYIVACAHgBgRIAwA6BEgDACwiUAAB2CJQAAF5AoAQAsEOgBADwAgIlAIAdAiUAgBcQKAEA7BAoAQC8gEAJAGCHQAkA4AUESgAAOwRKAAAvIFACANghUAIAeOGbBsr3LoueHwDg29AlJHFfRIP7/5EESvKv47dTf/8AvQgAwLdBvoIcv5EERb6+6EW+PQRKAAAESgB4uBAohYT7wLno+QEAvg0ESgB4sBAohYT7wLno+QEAvg0ESgB4sBAohYT7wLno+QEAvg0ESgB4sBAohYT7wLno+QEAvg0ESgB4sBAohYT7wLno+QEAvg0ESgB4sBAohYT7wLno+QEAvg0ESgB4sBAohYT7wLno+QEAvg0ESgB4sBAohYT7wLno+QEAvg0ESgB4sBAoAQC+M7j1IgCAFxAoAQDsfniWRNIk+ZeeBAAAUh5coPxL4x8AAAAAniw6HT18DzFQ3tb8fiXn7wAAAACemg/Vv6fT0cP3EAMl2Zt+KBQKhUKhUE+sSBB6k/13dDp6+BAoUSgUCoVCoR5EKRAofQWBEoVCoVAo1NMsBQKlryBQolAoFAqFepqlQKD0FQRKFAqFQqFQT7MUCJS+gkCJQqFQKBTqaZYCgdJXEChRKBQKhUI9zVIgUPoKAiUKhUKhUKinWQoESl9BoEShUCgUCvU0S4FA6SsIlCgUCoVCoZ5mKRAofQWBEoVCoVAo1NMsBQKlryBQolAoFAqFepqlQKD0FQRKFAqFQqFQT7MUCJS+gkCJQqFQKBTqaZYCgdJXEChRKBQKhUI9zVIgUPoKAiUKhfqG5R+sLWh4NTO/fnRovDZffjg3XRzs77+Zm+ppyYsUzuxc/jEVE/un5qvdxfbkAOHER16ev/a0V6bL64+UzboI4ZzeVETjG36FswXCaSjU91QKBEpfQaBEiVZAZFZY7uvo+s9xHf8p/tX/IMgP5FfyIJkknBuFklVKrWFh/5JOOQzLYq1aOL9zJXbv8jPfDuc9E0593OX5a0egRKHklAKB0lcQKFGCCk5oim3/D7r+/88FMgOZTbjkQ6yw8rkr7lB6Ol0unVcC9D2H3GzG2cow++PFE/Yj8fVAtviBPKh8wWKfjT6+2lZy0BovnOZpKUMTsivbeyZWVreP90+vzJe3JtPF4e67xdnJ7ubKLG2ov3CJB1T+CS+2rvgdZTEdLU5P9PcN9Q9PTcytbhxeLTVECRcQVEKXNVTdDOR81Rfq+L47uCJ723J0sL8yP9ffWZ+XGK4ULvjVyvPXrgyKiIlLTE7NzikoLasaXuMXR6BEoZxKgUDpKwiUKFsp1bqYpn/kImP08/+syj/4UdPxw7P8v/kpgSA/kF/Jg2QSNw+ZmSwiXMsDK//YlrcW7shnfJUeKJzMln9M8wo3j2WzLsbxaO0ULDZatQ6T7OXcFEQfX30UKIO0Rc/nd8z27RHzfneySiNc8oGUf/bgBbed5vWX+hBBKvL3dxuT/GPLmdO+l1tTtXHi2d5XJREohd7vzLSnSv+Z4su672u3vSIEShTKqRQIlL6CQIniKjCmRNv9L0xM7PyvP+tG//rHmH/zhyhRZBKZgcxGZiaLkAWF63pYZW99tGx0xImkltCymUt2hrutTr1zm5NTsLDMVKqcpnKlaVh1DBn08dUHgfKZpmhg+71Tmrm8OT483Njc3d4/N1mb/S6vP6w1i6feB1C6jnfcRr4fKxJP9g+mbG/Zzc6bpbnXNiuLKzs7J9cODdIfTevPE75dQ6XXhUCJQomXAoHSVxAoUX5smozv/V8kIIZU3v3NTwl0iKSR2cjMZBGy4EPPlEEFIyd8PpitFB5OVZnDB9yh8Wg0U5hzuMPwh7WNfWaG44EUwXRSyqJxtnWTZDuJ4+t9A6V/ROnE0Qdrgrk7XZ9oLErVBNrbqfxV4bpsQ9vI+uHRZF6Qw5IPq3KH+ObV3eZY4bQHVq7fsoCwxNIXy3xrK8nH89VuehM9gEKgRKHES4FA6SsIlCilWse1TQbk7f31j9F0dpRCZiaLcO2UD/zcd0TVkok7/h2PZztGLn9d+9Yde1y8nCx1uHiSL/4wPDM2ZWQPxrV0ckjqYS9uMw4Nr0gcX12nE3flH1O3fG3NLpfLHZlqkUZWvpRKeR2Af5kqGvdtpvmKJeMtU6W93OPmkdGd6JcvBEoUSrwUCJS+gkCJ4q6bDKm88yhN2jIl105JViJcL1XqlGfa5wGJI6qkUZX2RUCYRB+Xr1L+2pZ1rpHvbpi/3JEAAGx7SURBVOt5su2JNdUr5+xx8Xy5UezSQ/4wvNj2fJ754XYkX3h2M7SazZGW2YaWTYnjq4x0Il0RhhUzv/jt2vMUYRPqd1P+ysDKad9mmq9Yst4yXQfbbk2cDKYKJz608nmgbECgRD2OUiBQ+goC5ROv4IQmJg4+/y9/81OiMC/+GPuzbjSs9i+xXf9N++p/Rjb9X4FFpz8EFApmIwuSxclKXPf7Vqc+SxpTCYTlfLtMqUrt5/vJXqxVc+ExuHDslH3kar8tQXRL+MPwWksxd/3fzvNE5xn8s4fY6y/fNme17UkcX2WlE/HyT3zBX3f40bzeoRXdRnmljEivaBucXNnfO748t9waT043V+Z6msuTXPUL57f8uC+T/TUwLr+5Z3pz++DCZHlvOjPtrC4Ntlckhkptlq68b2xsduXN5uHB2a3jdYdi6P3GVEafmZrzo2ep6FloQnFr7+Tbjf3zU7OLzTC/TLctI+stC6pY5Je1TOUJJ8oIcO4a+Xzw2u0lY3voUmoyal6OLO3unVyaLdfHB/vLE69qsmOZZnB17aLLjefKP0ibW9cz9Hp759BstNyem873t9cn+56XpYRLfWisxW/w4asM7nd/ta6waWR2/XDfeG02Xxzs7i5O9jeV6x982zDqoZcCgdJXECifeHEjBJHgKIiJf+uXRRIk35v7+X/WtPzf2pf/ylwx2ff/+qevCGYmi+vYsYSEa3eouI4AJkFmP/Nni/xAfo1/+S1P0YYUTvBH6OOx4mC/gJSeI+7Xvb4ssd42fraj2nanPneEOe9sma8JdppB27rFzLDfk5b04lji+CornYiWf+bQCb/s5Ui+xDa6L3Vq8/yuRPdwi2l3sFInsWrrli/Vq5XaiolDa1up8xpOVhv1znuFL9sLl4Peb0zdM1T5awpernE9rty5MnXbmxllvWV84/S1aAuljAD3sAOlMqZ8aPuGenbiZmvMEKsqmeC7golvPFlBbOng21PuehLa9fZkY4Kr6335DbZMlZHoGZTcMn9su4zYwWqL2IkFFMqDUiBQ+goC5VOugMgsHTtCkKBP969/Topq+3/IpLCa/+O3AcX84z/G/hTXF9vFXG3pl7roOD9ZnBtLyMWY5wkDTJOkvzW5+Cv9ya+Jo98yUPr5RdYu8rnqpKu8gx9OyDhbKNnKwR/VSF4Mq1llZj4byXBs0QusmGEOq7cTxarUl2fsmunjq6x0Ilq6jgP+wHkynO6iJdFVhWb37duC4Pnxu7mJif7+keHJlY0TW7fxy+XWFLFMad3yk6n2viO2be/94cab8ZGRvoGpmXWTPV8eTWSLRMrY7LrGOrsx61CIJ5Ntjo9z8mKEizOlDIr0fjBFVVrXu1tuC82HKz1NNcV5OVl5ZVVN/fOH/OOXV7uvSjOTtFHqAMcmMzlv2bPsQT7wmafLqUsRZAQ4d4HyXq9dWDK2x7FCC0YObAHu/f7q4sjQcP/w9OyqkR1S4G5/cmKe/68kuvGqpKZV699CHy/OjpZnpwYHyBpmZte4NTBMGz16sY8dW9YNXmnSxNTOn7E/X13ubW4uLq6+3T49Yf/zbnUkCJdDoTwsBQKlryBQPuUKy33NpMD8A0GLozL3HZcmSYgUTPpBWaB9+a/Er/+od3ycrIRZJPe18DmslTTKBEqnR9iz3o6PfP3y17XvOp/0fD9f42I8bf6odtSb6ZfUs8f8/K7RMfik9R8zD243aPzS+fYk+vgqJ52IVqhhkd9O81S5d9E7smLhlHv2q5Px2lSnDj3+4akNr/f5o7txMDfUYRpXzk2MJyvN6REOsUupKRjZ4Rf/8KYh2j5FvDzMNCLl2RpiGja599qy3asXJD5VStc2f03tWgs90JL7t0wZ02j948T4Mp1+c2RsqrtA6VwyVuiqPFo8OH/UOrTq2VpberjDp8Y/JLFmfM+xsVBk40OyR/a4D8aVaa41R+P0v/xZSELV0A7/x8zBcIHIXyJMWTf4aGlq9T1Zz3xnqS7EYWSDwKjU0qb8OIclUCivSoFA6SsIlE+5ouu/kBT4B027YzT863+vJXkxvu9/05dLcn4XWv+TdvA3z3IdHyQrYRo7678In8NaiaPMKW/HR36JQMmMEtR3YDsWfrRsPte6avnjj2rMRYTKojGmUeTDRLF9mzUNbEccdjgh6wlK+vjqPp1IVGKntR/xRptnS/Klyh3iLhK9vlmodRqx3VrPYupXuW5Jl/t9euF1bQ6B8uqoW6RHUEB6n5GfwX1PZ48yjWh5tIbIhrfczNejhSIfM1XhFN/xf72NOm0q9Zb5PwsIDo9Lza8bfnPKhaqrN22p9H6RtakPNlBqmt7yfyeYh/NDhFPJXohrW7XfP5PaeH99F/+5vVlujBf2YmPLX1PDN3Be7bWI/w90+OxdX84aYoSfTRTKR6VAoPQVBMqnXNwFlILg+PuwRvJgROP/SUdJF8hKXF9GmejQQinomiPKeWlfVnTzjvVA9XGxJlw42alsgTKLBJT6Febn/R7b9XLKwgnmzKl5ulz1VQJlZj93po/ZTnpII/elLl/gz0rv9yaJHrVJ+ae+5BP2zXixoLXIflA3zxlEkgWpjEG+BVTkOkJBeZJpxMujNWT1m7iZnRuVbRXTyp9ENo9RF2o4phkp74/WZ9sKYiU+qTI29aEGyhjbf5DN5xIDhgYWTdiGshJuvKqAG2NL9E8UWz3L7OcbQXe79MKJTNnfAstKEz1aFwrlq1IgUPoKAuVTrviX/52kQEH/7p/iB8mDQaUWOjW6QFbCdNl5+d+Fz2Etx5hIx0ea89K+K6W++529o4DlXW+yaBMKX46B0i+lh22NW26whrukzn1m6tsm5rD7FQJlwaj1ajM2snpaz/LH+KO+QwgWKf51XX80DuU5x077QX3eQJ8QZ8sWy0R6OgvKg0wjUR6tIc86jvp6tehfDbaBby4msoXT3AbKm53Z3obynDiHk7DOJWNTH2igDCyb4f+DUGMa2Cu4csm6KwQb7585wA/57vpTpyqZ4y8+WW0Ry4syPnsolC9KgUDpKwiUT7m+ZaB0LDo+0oTL+KhiGta5RjvLFXfUvH3TINp+xZVToFQVz16QX80TOVzsCuVGTrnghpv5CoHS1sb2cb7aixZK260O7yZLxc7KWktVNs8f2rdfOF9OaNvy8y6RewSx5UEqkp9ppMqjNWjbtrmZzb3pIrHP3oNe+Kr9HJ5IcOvFpdnF1eX1oyOz9SJCi3G+p5QdR0dqDdKb6sGu85O1Qlclf3H+zyTm6o4SkRfGV2rfofjGx7Vuco9/nCpz+b84fYC9/liqbdu2waedScJpKJQPS4FA6SsIlE+5vuUpb8ei4yNNuIxPSl06yUU087KhsJcfltI0XyzZAuIUKP2iWtjWOD4X+ueMnpFfrxZK2I39CoFS32W93HO12UXqlSrbGfPLXm4cSanKGubPURqH7UMxMmXb8t0mqef3IBXJzzRS5dEa/G0Dj5uWGjSCM/7+UbXW+w9tdyY7T/Nz/5Ypw3SFz2et/aCNyy1aYTu3jE31YNf5yVqhq5K/ePYA/2fMpXUISLGKa98Q3/iMXv6yXdmuRNu2bRu8U++i1xwKde9SIFD6CgLlU65v2SnHsej4SBMu44NSpfedsoeoD+ttOn+/0NJpfoTC/b5MiedzDpR+6a+Ye4LfTZcz1xpq29ibd2+0c1nrKwRK/qpNwjRSIHUNpHQVjPI9J6TbF7lK6eVbmy6ncp0myEghHqQiGWtzUx6uIbRw9Ihrh/5wvDbWUJqXlqTTJqVnFzcPrJr5DuCHY9kiF4fKesv8I6tm+ez1gWrnlrGpHuw6P1krdFXyF7ddaGHqFr24kavIxhXxjbd96uQTffnyNxiFulcpECh9BYHyKde3HDbIsej4SBMuc+/yj+9Y546UR6PcOOb+2vYNfnCT3ZZ40cAmCJSqslkmoLB3jlGV8z/zPTq+QqD0S3t1zh90d+jTsm4rs8/IPe/9WyilD+oepCIZa3NTHq9BlVA/c2AdcpJytjVeEiN6VlfuW2a7/PRyvc25HU3Gpsa0STTyiZaMFboq+YvnWFsoLb3OnwanimpeFd94W7v4zfrkwMtXchh0TmvgSv4Go1D3KgUCpa8gUD7l+pYDmzsWHR9pwmXuWxFV89xtP67nKm19AFTZQ3xXU9O8aH9vQaD0i21lWyWZ+3Ok9zKtlR9m2NZKv68TKANLXzNXbTIO28WOui7LdhHh3VSZq2sog8oXrNdQdjqP6yfjoP6wA6Ufc3K7eo6NOBfm6/OrDxbL9cnh/vLMaGt5arjwPLWt5L5l9r4p5nHnnj0yNjX55b7cXecna4WuSv7itgst7saLRdM2W4nd/BUjwo23Xbn7fkjsTLbskr/BKNS9SoFA6SsIlE+8vtmtFx2Ljo804TL3q6Dc8SP2+GTZ7HQa9i6ydpG7X871+WAuPcSyMFD6c415lpn8mKa3zKS9ZmsE+xqB0i+odMp6y8TDoTxXd6oTqWf8fcbZO/0IJzpU6ktrL+/hfIle3tIH9YcdKP0jS8cPP5BsdDBdr/Vg98l9y+x3XxSOPWQ787vTIHEJYKAtx7vfdX5evHbnkr94YMUcf22oi/vQBBTPSmz8s7wR/lPn5eCpfMnfYBTqXqVAoPQVBMonXsEJTWxk/C+Cvt6MH2NJUgyr/Uts13/TvvqfJF8GFp3SF1aSBcniZCVkVcK1SxQdH2nCZe5TyqQX/FBBpv5sQVudUt/N39HbsvMyUdhkJQyUfsGG18xZ8pOuF9NMb3Gj/U6MXyVQ+gVkDVjPel+f9otd7ueiggqnmW5DxEG/XvSUvp/jOJTvp0qlxqGUPqg/6EAZXDzJhpvTiWzPPlAy37JnOUMW/t0RXpPANWATFxInjpX5o7abjLvddX6ev3ZBebB4HNcMf82cx5e4/dEz29hA9MYHFc/wI8a/60mQ+tS5Lw82GIW6TykQKH0FgRIV0/SPJA6GVN799Y/RwkzpDlmELMhE0qZ/FK5Xuuj4SBMuc4+KqlvjhgoyiY6+oy6d4i8ae79UJziAUoHST9e+wzxyYmSShOW1wdbs9XUCpZ+fvefHx0vzu+5sx/vguatnKd38EDDvlxriRMbO8fO33ynneDhdIk+7Oqg/6EBpvRxQfKRDFyXrLXsW07h8wb81h68E91pX1yzxk/ZeUfuV7PfoxmW+aVzOrvPz/LULypPFY9rW+ZlNgzl0sz1z/cjcufTG+yd18me9b9c6RW8jJKc82WAU6h6lQKD0FQRKlFKt03YzV0YG5O15lCnJzGQRsiBZnKxEuN4HUuqSCa5vytV+q040jPnHtezw5++Ms4VOjYB0oHyWO3xlPZR+3Gizv+qvFSjJ4bv0NT9iH+NqY/x5Sbo2xDGk+KvCten5lW0vx9oEQ/qpc8f4C/WujJN1qaGOO8A/VF83x99z+fpiopQOXTIO6g86UFqbCa9ORmszY8OClaLvv0i5e8ueheoKO1/zXcg/Xlo266kbW0Zb7yR+eXnQn69xeLv8g+Irh9/xN7OWt+v8PH/tgvJocXXxpLUB0rjakh7m+NpUMUWv1m23yRHf+OCM/h3+jP/7rYm2vPhQ4R8zSnW0vqCidWRuo58aVZ4rjzYYhfK+FAiUvoJAiSIVGFMS3/u/uHbKv/kpgc6ONDIb1zZJFiSLC9f4UCog9dUJd+Q7HMqTbPZU5Qwc8wfIXaf2JDpQOlw2d33Zn20/UMoIlO8Pt7bfrrnQI3521E8ZVzm3b71rDsdithzs7a9v7G7tnhkttnv/0M+uSm5d5ztxX380H+++npzo7x8ZmlheO7ZlmpuNHtGz6TIO6l8xUCqDIqJj4xOTUjIycwoKiisqDCP8XXmuTyaaq8tKS/Jzc9JTUxN12mhNeKAw0ZF6lty5b+3VJPDBbL48fLc9N9JTle6Y9riybapwYPO5+ZWl1f2Dc/vNlkgWn62hhqEkFZI3fGSb5/3+6sLwwFD/0NT06skZ81Z+2O7vHuNPi9O77p6vXRkUzi2ezi5e7uHizB8xk8e218hs/MjQcP/Q5NSbQyO78Vt9XdIbT+pZbMXsvn38oA+m4/23K6uv51cWVzbX352bbJMsEznCZbny9NOCQnlZCgRKX0GgRHFFQiHXThnT+V9/1o0K+n07IpPIDGQ2rm3yAadJP/+4tjXu0GVeqXB5WIowrPC3vb7cabKfHBYJlPb+rVcrFQ4pTEagdIte1lb+YakNA6sX1p4QUmbyhQuSUsVXjm+YHDOQA/PhREOKRH8VGQf1rxgoU7oPqa2VtN2gES7PlCq5ZcXeoizheqOv0PlKAtlvmWmnt1Qr9YdKUHLL4onobr/dnjDEKkOrl7lf6V13z9ee/IK/1EEOenGmlHGG8V1uYASB6/WBUo2/i43nyl+d2jy+fen6E2va7ZEY7NLTTwsK5WUpECh9BYESZSulWsddT6ljxxJS5R/8qOn44Vn+3/yUQJAfyK/kQW6EIO66yYd7ppupsIo57tzch432RLoVxqmU+hf8hV8fjXMG66WWYoFSWTDK9bx27ofxlQMlW/5BMenlDV0Ts6v7O4dm48WdxfLedHa+u701PzXa2ViZHhsi9TL9Q/UlLYNTK/v7J1dmy3vjyenWyuve1kq99Ng5sg7qDzdQPtMU9K+cch2Wb4/39leW39gbGhfeLq/u75usd1C8vpmvduyM7eItu7u4uDo+PHwzN9FZVxAbLDyXK6hnocml7WOzq0eHphszM2LR0crMYH2+lruyUPozc8/X7oNAyVRAVFbdq7Hl/f3Ta7Pl5vhgf2nipSEzivvESG+8Q/kHx+XWtQ+8Xt46OSQrubozmy/JelYW5vo7G4vTY4KkPq8ef1pQKC9LgUDpKwiUKEEFJzRxYwm5QGaQ36cbhfr2pcoY5C4SsLybKE9yunbUXs/U6Z1bfJdk6x2PUCjUkyoFAqWvIFCiRCsgMiss93V0/ee4jv8U/+p/EOQH8it5UObo5SjUL1fh1Ytc6+NJV4r06Nx+zKiLM9zFqWapi/lQKNRjLgUCpa8gUKJQqEdXmf1c137LTL7rk9L+RePcVbbC206iUKgnUQoESl9BoEShUI+ucga5gRKvlsokOhxxpS6ePWVPeVuWG0TGKEWhUI+9FAiUvoJAiUKhHl2FGfhT3h92horpYYGYUoYnV45s8AN030yXI0+iUE+xFAiUvoJAiUKhHl8FpQ/sWkfuNB9tTw71trc019U31Td1tHcNDs+sbxtvrd2cPxxMVUSKd9tBoVCPvBQIlL6CQIlCoR5jKaOLB9fORIeBdHB+ONWWE4E0iUI91VIgUPoKAiUKhXqs5R+iy6vtGZpd39g/N5pvLcw4iFcnJ6dbqytTw70NZdnSA3eiUKgnUQoESl9BoEShUCgUCvU0S4FA6SsIlCgUCoVCoZ5mKRAofQWBEoVCoVAo1NMsBQKlryBQolAoFAqFepqlQKD0FQRKFAqFQqFQT7MUCJS+gkCJQqFQKBTqaZYCgdJXEChRKBQKhUI9zVIgUPoKAiUKhUKhUKinWQoESl9BoEShUCgUCvU0S4FA6SsIlCgUCoVCoZ5mKRAofYULlORfAAAAgCdFgUDpK39BoAQAAIAnSYFA6St/4U55K1UAAAAAT4oCgdJXECgBAADgaVIgUPoKAiUAAAA8TQoESl9BoAQAAICnSYFA6SsIlAAAAPA0KRAofQWBEgAAAJ4mBQKlryBQAgAAwNOkQKD0FQRKAAAAeJoUCJS+gkAJAAAAT5MCgdJXECgBAADgaVIgUPoKAiUAAAA8TQoESl9BoAQAAICnSYFA6SsIlAAAAPA0KRAofQWBEgAAAJ4mBQKlryBQAgAAwNOkQKD0FQRKAAAAeJoUCJS+cs9AmaQJeZERuVoee1KrvW3WEeQH8it5kEyi5wcAAAB4IBQIlL7idaAsiQ87rtV+aUtwgcxAZqOXBQAAAPjFKRAofcWLQBkdGrxVFctFxvO62NGMoLKwn5P8fx/5028J8gP5lTxIJnHzkJnJIvR6AAAAAH5BCgRKX/E0UGZEqy8b40lMvKiLbYz5s/oPvwmRQCaRGS7YWEkWIQvSawMAAACXyieuP15ef1xrTaQmwX0pECh9xaNASULhXQvT6LhcEBb502/pEEkjs5GZySJkQWRKAAD4+jSls5ckgV0a54si6Kms4OzeAyalncwYQvkH+dzm4M5svjw+2F+em3xeWxirDhSu5BvxIlA+2Nfy4CgQKH1FfqCMDg3m2iZH0oPUP/5AZ0cpZGayCNdOiXPfAADw1cU0LJqZILU/WKCipyqDE1/sW0jMMq9WRdsepEOYk4vjtdaMCGpV9xPRuOQ+KfokUH791/J9UiBQ+or8QMldN7lcECaVJktCf96v0Hxs0THXTZZGCjIl105JVkKv2S1DxB/XE35nSv6BID+QX+l5AAAArAK1rdtmEp6ujp6nCBsy/OPb31pIrrp905zob3+cD2EHw5XahGRGYmpSekFRbdfQ6jmTPgnzWlUM/VzeCyyfN7tPit4Hym/5Wr5TCgRKX5EZKEvimThorouL/PfiZ7r1z/5w18K0Xx5URG2URo6kBwlmIAuSxckMnvb7JvHxMuU3AsiUAADgSmDai507kpzMax2xAY6TYg2LN+Rxy1a3TuX4OB/CdrszhKtSRqS93GPi6fXHo4Fchwx6T4HZw8ypeXdJ0ftA+Q1fy/dKgUDpKzIDJTdCUGPMn+koyWmN8yczLOWH0ZNsyOJf2LGE6PW78Fb3O5IgS8P/gfuV/EB+JQ/ScwIAANiosob3meR0M2uwnxwLLZs/ZVouT7rSBZf1uwhhJJ4WDBrZhr29Vzp6qndUWT2HcpKibwPl13kt3y0FAqWvyAmUSZqQL+wIQS76dHcnKsk8A6mB9CQbsjg3lpBHY54bk39LEqQqIID7lfxAfiUP0nPKVvK6zfKlbbU1lPwclal/uVD1ztJ0ftdyfGaYG0srjHH6m9VBQLgurqYrb3qzZu+y2fyp1fS+ae+gcnIwrTAukJrZ6bkW64KZX4MiSjrzXx/UHd60mm+b9o+rZsczCjTCRcj/dm1eSvds+Zqxwfih9eJTi/GyfmunfGIww5AbHi7xB2VQeJThVeHCQf3RLbPyg6PKyX59tsbp73JHXm0YAMD3JDx/3MwkJ+Ncfhj7iLpg6IjJUvtDBUHCmV2GMGVY5QIbwi4mswWTAsK1efXtgwvL28bj89uLy/dGo3FjZf5lc0kM+wXrTJfb1tc3vry8aTxlTruLmitwWoTfsLfNOr8Ajd7wamR5f//0ymy5NZ6erC1Mtpenhgi/6r/Na+Fwz7VmCGd+DUoobxle2dg/N1puTcaz7dWlgfaiSOEiKr/g+Oz6vrGld7snVybL3cXF9fHh4dvFuZftdVm6CKnDXFhaXefY242DizNm5aatldfddbkRksdfyQ1znE2BQOkrcgLli4xIkgJHqbPYHO0//LsEv98PpgWSeSYyg8nPRMwf/46ekxhle+eQFdLPIuUi5QeSIB0fIb+SB+k5ZeOy1Nl4fFJz+dFn5mcnH2r680LoHnBR1WVngjlt7qp7s8T/s3HPtf0iMjBKN3TcIlzwc1m12nmRZ+qS6dpz+in4+ataYoRPQWhys9++p2Ymbqv78kVeizcbBgDw/Yk0zJjYaNWfq1KGpPaecPmygA0ZzlyHsPAqLoSZxjKcHo+qmGdOoIs63x5K54KsXcmw+cbEe89dzmix2B7hTOY5LcJv2EJjXv3iBX8FpJO7/alq5+aDb/NaONxzHbUlBmqKx7fYvlCOLAt1Ic6L+EeXj+ze0k/Bz7/eES18CpJ0o7J6to3UzIRpczhbI3qYk9wwx9kUCJS+IidQrpYzzYolYT/TAZHYKo34Qt0j53VuKD0nQVZCppIV0s8ixaIXCZTkQXpO2bgsZbluOv7csjWbXpYRHhserImKyKnNfXPJ5bDy2ijhUqqI5Ne3jauvc5or49K06qiwEG1idFlX6e5HdhFjdtozahHrcxlnMp7vtV7cVI/3JJdkR+mTNJn5uuqu/LmxpCjn+cOrSk1MpGteHdMXpobHRYRoNOH6jNjSxqyR1ZqDpSQ6iwcnZqzeMc9yelDYXBytjw2JiolML0wZOmhiNuyDoS1B+MerFxsGAPBdiqpfOycx4urgedXLjSuSJ65nHM6AO3AZwgJy+k7YOLLWLmhvC6tZMZ3sTLxqL83LiI2OCtXE6zIq21+fcNcpkrVJtLepZJ/L5mc7MZI0+X57prssOyVaExUWm6wvah/dvmZD0vtZQzS9yDd5LdxzXY92dK9Z7k43ZztqyjNSUxNSsnNK6tuGlvsrHTeMiCibY2Oraae/riRZpw2PiIqMT0nNqah5MTW/cz5t0FBPEazr2GG34WpjrD0/g7z86KjEzNyG8Q32rwXTWme8SDul5IY5zqZAoPQVOYGSu4BS/+wPdEAkXiQop7ND9is0ZJ6jqijyM9Ec50fPGcL23fki+zJKui8OjV5KBj5Qfmk7mo4X5LMQfdb6J3bSaGyQcEFVaCB9NjwgqafmgllbbWeCYBLD9lyW86LyKJFgJ5A32czMfJyppyYRgSL/mcMad5j1XxxkpSqdJ6mie03MJNNyEv3/09MNAwD4PgUktazb28POV1okvvFchLDguMZ1EzP1bqVZJ5waGBpIp5lAfcc20yXo8t3LeOHabDwLlOTZt3pzgwVTIyomz9ipb5rDqEW+yWuxbd7H/UmDhl5cqGCIbSzc7kylJqmYwxz97sS2rjB/CdxtdKULD3OZQ+xlsu9nquhGEFkbpkCg9BU5gfJ9MzMSkFT/bo6cayhD2L7eZLb39IdYDB0fafRSMlizVE2nyPXIgWUL7Pnfm/wCsRZHEanZe8zaWkfyqUn252qeKA6ip9LS+hvYZy+tDBdOEpectcOuf7SQ/k+ojG03MGv7VFYt/A7yeMMAAL5XypTebS5bXO21JoqeHlXRIcw/UB0UoUvMMbSMvjMygebjxbuBVPGrm0Toe4zMM1qmcqhJVh4GStNMnsizB+aNsg1+Z6Pp1CLf5LXYNm8uX01PpWV0s5exGmdrHBKwK4ldR8z6z6dzRUKhtnGdWZtloY46zMnaMAUCpa885UB5k58n0uCnjGyoYJNWdYdWOElcVOoK29Q3UUJNsj3Xh8ISwd9VEoJTsrfZyzrPzyt6G+J0wSIx0VFMaxWz/s/lNWKXPAYWFbIn0Bv7HL5oOJ5uGADA9yoof/KIyxbXFyOFUgN62xu0RBk3RwtipMKoCE3jFrugoIeNI88CpXm6UvTrWttxwDzR1ZxDo8a3fC38c5nGy0U3jxKc3H3EXgl6u788XJ2bGOTmMBfbsMqs37LYILgWkxWYP/ae2baT4VThJFkbpkCg9BU5gdL1KW+OzED5oE55H2UmUZMY+fls55vmAWH3N6UqICSlOKVzpHB207BxUndw2Xh622K2dutxFSiPM5OpSRICk+oKt275dVo+NKzMZNXkhIWKZV8ia6SRn9OlsULhgp5vGADA9ygos2fv7vL6zmi6YpLHwbBEy5x4CLOYzVtvZp5XZ0v3JlYpNWn59T1M3+31/e0D07Hx8sx8a2EbAiVCmNMzygyUOy/SqEmM2NZd6om+5Wvhn2vreQo1SUKw3jB+yJ52Z5iOtkZf1GdqwyQOczl93CBHrl3NOPdkUsncMAUCpa/ICZSuO+VwZAZKjzrl0PGRRi8lA5+l9tMTqEmMrLwjJoS1jjqHsPDUtJkzW2/oVqO5dmvP8GajYn6z9pR90FWg3EuX1ShrFRQZZegtWb+yJ8LTw+L2fJEbVxbOtNLxkUZvm3cbBgDwfQnUte8y7WHHE9mJTcvMSD13G50pYlc08fnDfneZeJ1GE6ly034Wrm9e3L2wxhrL1eHewdra5tLS2+V3bH4VD2EczwKl1GwuAuU3eS1uNk9CcER63YuZ3RM+qpJEeLk51ZUdSx/mSkYvrfO4Qm+brA1TIFD6ipxA6XrYII7MQOnRsEF0fKTRS8nAZ6mTLNGOL6rCAvY0cdNAlsODmuRZblwec3l3VXS845lobfq6RGhT3TO3KUNSSlN7V2qMfCNo01JjhOAkRfYY25X7fUFxcFC4tBCqwf9eGwYA8F3wj21eZhLS1TTT1zgoqeuQCZeWzbo4+oQvnz/EOrJIijAss2PZ3B0u9ZVl6IIdOm6K5TwBWYnH7WxiT/QtX4ubzXNNqUkrbBqee3fFD4d0tl6jE7w1uf1sryPjaFlwaLg0NXWYk7VhCgRKX5ETKH+pgc3p+Eijl5KBz1J3hYVif6RqmirZ9FbdHmd/UNdZzT5Y262nOnrz3WK+QqC0CktIHDhkWyLvygyhTpPiuG43XypqnR93yycbBgDwkEWVzTL3NjSvtkdzrQDqohF2xBzjHN0jxIsQltC6xcag3b4k6iQy35VEPIRxZCUet7OJpb1v+VrcbJ4sAeHx5WOb7Ejv5/N1zl0CtE1st5vL5Ubnx92StWEKBEpfkRMo/WTcelFOoPT01ot0fKTRS8lg7eBc16MXTlL5BZUvsdHtOs+xy07+NNf1Oy9POL8yvLacHTboKwZKIjA1e5dtpBwUdLJL4R5vWagRvypIiq82DADggeL74lwddabYT6RG1Lxlr94zDxWEO8/vRQgrGmEzkHGwgJoUUbXADrUjHsI4JWPsCd+tTvHTZVZugpGPAqXXr8XN5skWmNzNDjtvGs90npTcwz5ueVsRQS/lgqwNUyBQ+orMQFkSH0ayoLkuTqqvt9tASRYkizPXYsaH0esXRcdHGr2UDNZA2XaykBjlfBWwWp+1wY1DORzjeCUH3/flU5lBMDBBcEzfKb82nwTK0GDqT0NWcC53ZWdDr/ONDVR+ofVbbAK+KDHwf4ILBIQ5nrmw8nTDAAC+K3xfnI+Hw0VOd1kMsI6quDeU4jRomhchjO8vYpmvE9zIMThr+J2rjiycrJdsc+n5rIG6D6QjN8HIR4HS69fiZvMooUFq+noDIjhrkL1PJt1fO7b5DXsZ5eFMrfhwkoHhQSLj38naMAUCpa/IDJTEVhVztnq5IEz94w90XnQdKMkiZEEyA1kJvWYpdHyk0UvJwGep22bTl5bdpcyKrMjY8OBITURWTc4yd6ecmzKD8/0D1KVFXM+bvdf6DI2KGfM8UK0vTBs9brFcN3L3b/RJoCyZa97dKOxuTsxPi4iLCI4MC4mL1xTU5SxY2PWc52VRl4kE61KXuF7h14axruSiLI0+MUKfGp1XltzUmz932LjVHSnyRB5uGADAd8TaF8e0XKYRTg3MHT9kosbderveoU3BixCmLpxke6tcGSdqsyKCyaEhUKVJzW2e3jJ/PDkxs9cFioYwfvH8cW7xs+nmIl1MlDoiWqNN0WenOp+OdxOMfBQovX4tbjaPUj5uPl0c66srL9InasMjIkM12riUoqqXq0dsbN3vz6UPc9qmtTP2WU42Z9prStNTU3SJqckZBUWGthfDy5vGg/YkkSeSs2EKBEpfkR8oo0ODLxvjSSgcSQ8SzZRSyMwjbF8csni0SD/lb4/PUospBX0Gkdtz3xpeZlOnj/3Dq1ftA/RcfGzlTnNbrita9ZHNe74LlNbWUxHXlR1pon+cKcP0qTPnkt29d7pEThN4umEAAN8Na1+c25XmRLHBaKIq5tk7Fl5sVMfaWsu8CGEqf239vH1QmzuzhTs1/PHkTWdiYvuaZAizLd64yN480JlgETfByEeB0uvX4mbzKPz8ok7eduvFByEPT2pc3Jfs7n3UnkgvImvDFAiUviI/UBIZ0eq7FuZW3csFYZE/iZ/7FiCzcW2TZEGyOL3OXwKfpbZSY/wCYvPT+t4Ydi9bzHctx2eG2ZG0/CiRE8SMgNC89vzXB/Wnd63nH5oOTqqmB1OyIpizzBlDTNb0SaBUx8RW9+RPbxh2LprOPrZaPreYbuq3t0uHupJSXXe7CQzNacgeWyWvpcn0qe38tung2PB6JqelMjpWRc3s+YYBAHwvNFxfHMtuf7L4H+Eq/4Tn62x7mHG22vrV6k0II5QxBU1DKxuHl+eXt6az8+3VhZ6GnDDmOJL1ijmjLRrC7FTaktbR1c2jS/PlB/O55eDd9txko/ONfN0EI18FSj8vX4ubzaOoo3PqO4YWljaPD89uzJd3FsvN6dHRm9fjbZXpatELt6xUsfnVPTPzm6fHpvcXV2QLTdtrK6OvOkoz4sQOc7I2TIFA6SseBUo/NlNy7ZQXdbGNMX920e9bzfbCuWC7dZNFHkyaVCFLAQAAgB8CpQ95Gij92HPf3PWUX9ixhEYzgsrCfk7y/33kT78lyA/kV/IgN0IQd93kwzjTbYNACQAAAAiUvuNFoOSUxIdxYwm5QGaQ36f7G0KgBAAAAARK3/E6UHKSNCEvMiJXy2NParW3zTqC/EB+JQ/KHL38l4BACQAAAAiUvnPPQPl9QqAEAAAABErfQaAEAACAp0mBQOkrCJQAAADwNCkQKH3lSQZKAAAAAARK30GgBAAAgKdJgUDpKwiUAAAA8DQpECh9BYESAAAAniYFAqWvIFACAPz/7d15Wxppvjfwd8IbmO5zpmeu0z1ztekIAiKbuIsoggoq4oIrIprEmMUl0axmMZrExC1R44KIaIwxaWeeOXPmLT13VaFC3VVYIG2MfL0+f0jV764VU99U1V0FAOlJhkCZKgiUAAAAkJ5kCJSpgkAJAAAA6UmGQJkqCJQAAACQnmQIlKmCQAkAAADpSYZAmSoIlAAAAJCeZAiUqYJACQAAAOlJhkCZKgiUAAAAkJ5kCJSpgkAJAAAA6UmGQJkqCJQAAACQnmQIlKmCQAkAAADpSYZAmSqnDJQlelW/VTfdaFprz9/zFRLkF/KRDCSj6HoAAACAc0KGQJkqSQdKV4FmtT3/oLcoDlJAyui2AAAAAN+cDIEyVZIIlMZs5VyLiYuMmx2mMWuWW/NLyaWfdD//SJBfyEcykIziakgxaUJPBwAAAOAbkiFQSvEp7g9Xk2igtBrV294CEhO3Okze3F/Vf/mTSgQZRQq22FhJmpCG9NQgnszy/paVz75340W5/FEAAADfHYW1dzoU3FwbdZv4o74RmVCgHBoa5memqJ/CohI6cZ297ztQklC438OcdJxyanQ//0iHSBopI8WkCWmITJmYnL6V3vBBb/j3uvpL9FgAAIBYv+kqXP67DybfvVvbDob3w+HdjUBwfnbmyf07/o6GEsO3PgoXXp/7+GX745fwA/c5Oa7JECil4G+D2B+uRnqgNGYruXOToxVZ6r/+QGdHMaSYNOHOU+LadwIiZyjnxgoM/FGQKsr2md7wYkUhfzgAwHdGaWq6P7fJxDUx4ZlrufxWh7TeyY9f3viL+cNTiztDGVweqj0vxzUZAqUU/G0Q+8PVSA+U3H2TU06NWJp0Zf+y1KT/0lPI3DfZoONlSu48JZkIPeUTebR/e1v052DpDwT5hXykawCSoCh++AWBEgC+f1lVY0tcagy8f3Czr6mhvtJWXVnjqmvx9dx6+ORtMPhx72mraIxTND4PnUGgPH9kCJRS8LdB7A9XIzFQugqYOBjqyNP9j/CVbvNvf9nvYc5fLjcZZhp0oxVZvALSkDQnBYn2+ybxcbvsTzzIlJAKCodz7QCBEgC+e8a2l/vMacjAC7cxixpLKBS5xVolPTwy1n53exuB8hACJR9/G8T+cDUSAyX3hCBv7q90lOT48y6RgkmHhh51hDQ/YJ8lRE8/jteFfyYJsiHn79xH8gv5SAbSlQCJybSOdDJ3qSJQAsB3zjkSYk5Pro04k7k3UW678YFpjkDJQaDk42+D2B+uRkqgLNGrDtgnBMXp0z1QfJnUDFsU9KgjpDn3LKGEnnkeKP2RJEh5Zib3kfxCPpKBdGXisnIMnlu1E8udK3v+0F738krzwyGzXZ9JV7qeMf1jXnSQ/95l6iwl/Y+bZoLe9X3/5ifv+8XG0evFZnVMfX5fyxZJKl+bOrT8SR0xdjezfW5aeqJvanHXMwOjSYg7UYt3WZ6ldV1zPFvu+LDLrNTSasuT+1annt+EUJnyfaOuV+vetX1/cLdrfq7+Vldu7mV+Wez0Ja0+V/+kRSHPMV151ba25/uw7OqzqZix+rwrL1qX9/wb2+0TI8XFmfx5yf/I/ULk11YMjNY9mW1d3O3hb2qCmgUAwPnnvMMGyuCYS3KgLKzuHRy8PzU1G1gP8++2PPTUyW9FND5gRr3x5DAfs4oae+6+mlnaDIT3goGN+enJ4b46XWyTukf8KcdNrlHTz9SZPbdGp5aW1ndC4b3A+tqbiYd9jRaVwOGAo8mvvzr8fOH92k5ohz9TxrSfd1CWIVBKwd8GsT9cjZRA2W/VkRQ4Rl3F5uT//b+LMn4aKVeQmgeVSvI7kfu3/6IriTG2dw6ZID0XMVtlP5AEGT2EfCQD6coE6avtrz9ReYLYax10qBSxxVxwWRkxlfQ0rnylmhz0bm3WNxuivuI5pc/Zsrd97J+cAI1/mSkITZfG3NRSUf5kuvn1Ytu7TW+Am5HkQDnfr1MYCu+sUjnpd3crP1fJ81vq3n3hrwWxsVjt1PL/VhNdfa5+eaiobSZqYfYaWgyGgVV/dMOlu7m8Xod/7H7JuFz3qGdjLyL4O1v2tSd4OGQjdvoAAN8FU9c0G5jWnjjEDjp8rruh3WDEpzCbt8LhoyGchzX8VvLDwLfSW6zQ19+fY4NstPBEhyq2SZlv6vnL+TcLa0vrH7ekBsrQTXtp54stbsFi7S89ahU4xZBpdN5dCbE1W5ubC/MrHzY/Hzb5vL68ODXx/I6vOiu2lQyBUgr+Noj94WqkBMrpRua0okvzCx0QibkG7QH1jpxn1dl0JUEmQsaSCdJzERM2CwRKMpCuTISy2Dq9z4SJ9eVaX73RbFIZcnUVtWV3lruZhPHZ01sU82Xlgkt4u2vl997gmutqi8mcq9JrNSXlBb7x1gCbXYIvo6OhwvWczVLrdovg/xfNtgWmle+xW8EfxZup5EAZGLdeXfRv7bbev1HqshvMJfpKR2HrdcfTeyW8G7E19pp3bJZam69ur9Ll5ZDV19d01bzeZQZuLlaWxZ44THT1I/W73QuTZeWGbIvfzdyqeNC7uN6xseJoMquNeXn979jt87m+IWpef/x+EVovCVsYAOBc0zRPBtnwFHh7t6FEK3jcEcdluPg5j1f8cezKwJvw/vrskyttjVaLpajMXuXq7L0zNdRspJrw2safUaRmdS0U/vhpfnzAbS8z6g0aU6m5rm9s/iMbED898fDncrgFQk97KtXckSJTZ/ZOfWAG7o4366kZMWQIlFLwt0HsD1cjJVByN1Caf/sLHRCJ/qLLj+2qpSY9qVlpMZDfCV9eBl2pYvvuHEi+jZLui0OjW0mi8S4wSWJr2WbhXeGVG28H2RQyVRL95YskD2K12q7kTU3ZMMHGnYOmzpzj4crqmhVmYNewjf6P1OXKu11Mkx2HU+gSM0d63DlevM26xtgTcgIuaa+ussVk9eUxo1QW+yx7nm+6RxM9PNHVP6xv68vn5mi8ucUN8Q4dbg2lu36TGdJxveRoUmexX6JJ38IAAOec0XF4fm575+P889HOBqt4LxweKTmPX0wsPfToRc+JCJIyo6Pp78/drub/w65terjBjn3p08SMMna8YoaHpryxww2eyT0yPPyqR/BAIEOgTBUpgfKTj3kSkFj/bo6UeyhVbF9vUkYmSM+FRsdHGt1KitLI2cGxWoHsZerzMCHjq7s16nt8GFy679XK6SaKWmeQHTtsixr+m/76BtNqfbyA/yzZzPy77LnApSED7xpuNOlx53DxfA/qs+ixfNbqZaa4R+jkqKJxkr0kvWG3RA1PdPUj9XtOR6QmyzPNDvlSV//bYcPIXugZdfCG/MH7JYr0LQwAcO5laovbxl6tsd29WeHgytORPkfRiScspeQ8fvF28KlDTY+NT8qMjqY/XiMQiBU1Y7vM2I2xipjhjuEg02r+WvTBi1F4bYWpXx+18CfFkAkFyu8CAuV5CJS5/hYmRvze2Ma/s5ChqKtlU4h3MOrLGkkeX+rdgicUC62zTJPeB/UxwwuuepiuOV8aWmJnpGlysbNou1pITSqK9LgTqfxc6xJcvFj5V1vZENbUns0fRei8TexYj89wPDDR1Y/UB45SaabrOW/IZXl+xVu21f3DVme2X/jNJWxhAIDvhDK/su3W2OuNzcNYub2zM3Pfb86Jc/5CSs7jFwfvNwr+wxuXlBlFakKPmwWnn39lmV2pp0cnI1iRbklve0t49Xl975n6rYd2alIZCJQpJCVQxr/kzZEYKM/HJW/bqJfNTCe4V3vcJJI81m1l1NQYh9nogSt2uNY8wVxB9r/0Rv83TumZZs4Cbs1b8uhJRZEedyKVq5Wl1Cha1T0fU3x8+jCWw7HBrEvMWb1EVz9Sv2w9+ifjaEiReKuz2y+85hK2MADA90WRlVfddP3p20DkhGVoccwecy9TNCk5j188d1X4H964pMwoUrPQX06NYpj8bEDk90Av6H7LxtxHzbG3cmXXP2bPaM5eFXxLkAyBMlWkBMr4nXI4EgNlQp1y6PhIo1tJUDse09FYTHQKOSF5iAaXLPcEm96iopXcYHnJdIjxP2sVOJkf7YSZJlUpP1r97RobNYph42799I/RuU1s+tTq0/X0ELrVGe4Xac0BAL53l9TFDaMfuL7VS7erjm46iiUl5yVXnETbE2pEAqVc1/GGuYV0Z2W4vvCwr6fKWH9/nnl+0N5kl/CZLBkCZapICZTxHxvEkRgoE3psEB0faXQrCez32L4an5z1yqwccaqok+0nJA/x4JLlcLL5rPNmWeS+wML+NmZSe/UNCn4xzwkzTaqSsI2xq7/ncFKjGE7uvkPvEH2GUmz61OrT9fQQutVZ7hdJzQEALoLMkr45JqJtLw8dd4KMcUKGO0VxEm1PqBELlBmZBc1PN9nHDO2tvn/34sWb1++22F5Kn4UfM8SSIVCmipRA+a0ebE7HRxrdSoI8rnuHyE2Egk5IHnGCy2+GAbZ78sqoSckM0V1bZz6u3uM+xnPCTJOqJEy9kdXvjO0KxzFwj1sXvIdSbPrU6tP19BC61ZnuFynNAQAuhsrhLSaEhceFnispPzHDnaI4ibYn1IgGSiIzv2Vih4wNhffCO3vBQODNi/gPQkegTB0pgTJDwqsXpQTKRF+9SMdHGt1KijL7eyZn9Ey0nXDR+cgJySNucCm8xnaC2XXWXT56/OTxCcs4TphpUpUMs/0dswz+8Sa6l3dW4yT7eMhgVUXU8BOmT60+XU8PoVud8X4hap+wF9lXKvk3cQMAXCDq+kfMo3O2V4bN/FEc1z32vTJz18zUKNoJgS8uKW1PqIkTKI3t04GPX1afdhjoo5sIGQJlqkgMlK4CDcmCoY48sb7eJwZK0pA0Z+7FLNDQ0xdEx0ca3UqS7M45NklsuTxGwWCXqVHGPIbmVMFFZ55kbpr03a+Tm291MNOJvqVS3AkzTaqSpel+x9RvrdgrYi+7q8vts+wDz2euxLxr4YTpU6tP19ND6FZnvV8yLltH2G5A+64m/qPOAAC+J0ZTsU7k/kh5luXWG/blimt3mfMadEHGZdvNNaZg84mH9yIZIScEvriktD2hRjxQWgdWyPDQDSu/SRwyBMpUkRgoibkW5mr1lFOj/usPdF6MHyhJE9KQFJCJ0FMWQ8dHGt1KGmWhZXKPzSIfPfeul9bZ9OZirdlirHGXdt92PP3gnRvQRdefLrhETvut36/oX+ulOn2LOmGmSVVylObKt+x7F9cWatqrdKYcpd6gqz58Uw4JmtbYXnInTJ9afbqeHkK3kp/1fiH/a6/j3qazNFnuKM7WZ6vE3qkDAHCekRC2tzr/evTm1dYmV2VFRVFxaaHZZqvv6Bl5s8S9qjs43WISe3KQ2nGfuVK8vbPx2FdXmGtQa436/DKz3SJ0Z9QJgS8uKW1PqBEPlM6RTTL885tBV75WfVnwrARFhkCZKtIDpTFbue0tIKFwtCJLMFOKIcWjbF8c0pxMhJ7yN6IxW8Y3RbsVL1zXRhefMrgonU7m3YO73Ux8oR5LeVxmsz6Zbppa8MysdixudW9wL6f+2rO+3fl+ve3t+5apN42PumMSFeeExROQaaitfstFt1jBFUc9dfPyCdOnVp+up4fQrThnuV/klzTtM2w3/CN0DQDAuRcJYWI2F190mONdHryU733BPhg8Fh3ajuclFvhiKSuuTD2fmnk1szS/GPgQ2OX6m4e3tldX1hcW3k9Pz0xMPO8wJzB98UCpttyI9GePFg5/XF18Nz5ypSqP/5KRDATKFJIeKAmrUb3fw7yqe8qp0f0sfO2bh5Rx5yZJQ9Kcnua3pciu6rLfm/a83+4Ofu3d3OteXvU8G6/qaTaaTneKju+S4eZmJLIIvDjnkKqlgY5QPJsP8uiGJyyeiCx9bueI69V61/oXf3C3a2HOdbvbZBK6IHLC9KnVp+vpIXSrY2e2Xwi5pq7fOfGB2QihL741ugAA4NxT660e782H4y/fLXzYCoT2wjv7odDOytLii/Exf3OVTsJL1OT5Lv/Y9OzKdmj7c2gzvPxu/ulDbxFVdmLgi6VyP+UnPMreiCOB6YsGyuwSR9f9N8xJShGb892l/LNaMgTKVEkoUGawmZI7T7nVYfLm/hqn37ea7YWzxXbrJk3OYZoEAACAC+BSnufB8t72x4+zD/sbHdWlJaX5RaxiS0mFs7Zj9DV7/jU00cm7QihDoEyVRANlBnvtm7uf8oB9ltCYNcut+aXk0k+6n38kyC/kIxnIPSGIu2/yPF3pBgAAgItE637CvA4nMC52R5nc1PuOOUkZehD1iGWGDIEyVZIIlBxXgYZ7llAcpEB6n24AAACAxFUPbTAnIJ+366lREdnt00ygDN6vjB0uQ6BMlaQDJadEr+q36qYbTWvt+Xu+QoL8Qj6SgRKfXg4AAABwCtVDASZQvr9hvcQfxVKU9rxhnsQZnuzivThDhkCZKqcMlAAAAADflLp6lH0V0M7aw97GEqM2k3tWiVydbbLYW67fm+MeihQYrMrhtZUhUKYKAiUAAAB837Q1N2Y/Hnfo3tnb3NoLs6//4YSDi8ONRfRjTGQIlKmCQAkAAADfPYXR4hkYeTY39yEcDH9m3uUd3Fp6925i/P6Vdle+Rvih7jIEylRBoAQAAID0JEOgTBUESgAAAEhPMgTKVEGgBAAAgPQkQ6BMFQRKAAAASE8yBMpUQaAEAACA9CRDoEwVBEoAAABITzIEylRBoAQAAID0JEOgTBUESgAAAEhPMgTKVEGgBAAAgPQkQ6BMFQRKAAAASE8yBMpUQaAEAACA9CRDoEwVBEoAAABITzIEylRBoAQAAID0JEOgTBUESgAAAEhPMgTKVEGgBAAAgPQkQ6BMlVMGyhK9qt+qm240rbXn7/kKCfIL+UgGklF0PQAAAMA5IUOgTJWkA6WrQLPann/QWxQHKSBldFsAAACAb06GQJkqSQRKY7ZyrsXERcbNDtOYNcut+aXk0k+6n38kyC/kIxlIRnE1pJg0oacDAAAA8A3JEChTJdFAaTWqt70FJCZudZi8ub+q//InlQgyihRssbGSNCEN6al9Q+768EFvjMWKQrrsu/BdrMtvqsquqvszre+3fcGv/tCe98NG6+REtTs3tuy7WBcAkOg3vb315pMXs+urwU9b23sbgc33s28eDjYbY8vqHn3Z/hjjjb+YnhpAyskQKFMloUBJQuF+D3PSccqp0f38Ix0iaaSMFJMmpOG5ypQV5U+mm18vtr3b9Aa+fufBJfF1cT2LCW1bX3vWtzvnF9z3BsvqCrMUVP1pXdJ4Xnn5SZHYdzVlxVYmvi5pjrcrBT1w8VtBemp8EBPa9rdCO6srK6+ej1/vdOVr/oA/fFP703V+UiRCTzy8P/wy39Tzl/NvFtaW1j9uIVCejLcrBT118luBABkCZapID5TGbCV3bnK0Ikv91x/o7CiGFJMm3HnKc3ntO3JIvhDBReK6xEshX71T13N1VJPTUDqda+zEFycsDnO2IVup02UXmnPrnfocqviIxHU5c8r2mXO0VPF25aFvHSjP1xZLZ/FSSHhtps+W4j/86tEwM/GdwKPuumKTUZ2j1+YWF9vc1aVaqvhIZCHPXaDUeifP0VLF25WHvnWgPF9bTJQMgTJVpAdK7r7JKadGLE26sn9ZatJ/6Slk7pts0PEyJXeekkyEnvKJPNq/vS36c7D0B4L8Qj7SNadwXoNLMiSuS6Qs5HQXaosLtSUlequjqONm/cwuF0F6Jjuz6VZJKx/uZCa772pS8kfFIXFdzpqi+OGXc7RUka20VddeabSJKM7mtzpT52yLpbNIClm+25xfVEoUldmrGrqvPloMcBEk9NZjolslzXpjhZnsJnU+Mq5zGigVjc9D52ipIlvpw4Ou8soqESVqfqszdc62mCgZAmWqSAyUrgImDoY68nT/I3yl2/zbX/Z7mPOXy02GmQbdaEUWr4A0JM1JQaL9vkl83C77E09KM+U5DS5JkbgukbINe3nscGWe+fkndlS4xv4bv1XS6sbZaa5WllKj4pC4LmdM4WDPtp6bpRLblefHedti6SySQt4PWGOHK00dr7lMuTJcfYnfKmmusR1mmnNXy6hRcZzPQKmw390+T0sltivPj/O2xUTJEChTRWKg5J4Q5M39lY6SHH/eJVIw6dDQo46Q5gfss4To6cfxuvDPJEE25Pyd+0h+IR/JQLoyWeczuCRH4rqIp5BM60gXe5Kyvb+Y3ypJl+TuCUlLxSNxXc4W2T7s2dZzs1Tiu/KcOHdbLJ2Jp5BM2032bOL2+1uF/FZJuqRofpRMNDyXgVJuu/HhXC2V+K48J87dFhMlQ6BMFSmBskSvOmCfEBSnT/dA8WVSM2xR0KOOkObcs4QSeuZ5oPRHkiDlmZncR/IL+UgG0pXJSii4qEz5vlHXq3Xv2r4/uNs1P1d/qys39zK/LIZCU+O1j75sWdjyBphW3sVVz9REzZXOghIVVZyRmVOY13a95vFs2+K2L/TVH/zUvbjc/HCkvDZPQRXzSVyXOClE0+ZmA2XPqIM/isjKMXhu1U4sd67s+UN73csrzQ+HzHZ9Jl1Z1l3/ZKZlJtAV2GfnJST+vX0S14UjfcGOSd4v+bUVA6N1T2ZbF3d76LWIvy6JfmG4tX7RoWQ+Zmld1xzPljs+7DIrtbTa8uS+1akXqBfcleKS/Y5951vM5G8JU83TSpwUoml6zgbKrYd2/igiS1Pece3e65nlrY3wXjAQnHv1bKCjWivwbSlvfzz14s3S+9WdEHt6Ukj8e/sSCpTSF+yYIs/ZNvDwydvVD4GPofCnwFpgfnbm4ciAp7Y09mtcWN07OHh/amo2sB6m1yL+uqiNzr7b43MLa9ubZBarK1OPRlptJvGvMbfWbzw5zMesosaeu69mljYDzEptzE9PDvfV6QTqBXeluMyc/JrOvpGJqfnA6ube1vanQCAw8+r5TZ8rl/3zEfOdb7H8rul9MuvwK5+WPxGGDIEyVaQEyn6rjqTAMeoqNif/7/9dlPHTSLmC1DyoVJLfidy//RddSYyxvXPIBOm5iNkq+4EkyOgh5CMZSFcmS3Jwkee31L37wj8uEhuL1U6tcHbRWSuebfHrI740tlI3txla3Rt0JWe/9bYt7p+95HWJk0IOA6V3yMofpa+2v+YuiPPstQ46VLwuonWPejb2IoK/s2Vfe4KHQzijtfxZRJO4LvIEF4yT0H5Jdl2S+cJwaz3fr1MYCu+sUmnsd3dr7H1RcXalmOS+Yxdhi6mLHlHN00qcFHIYKNdHLbxRmQbbjfnITZaxgrN37Xre35frbmg3GPEpzJaFw0dDOA9r+HOPJjlQJrZgXBOdpffVB5GkG3rRyfvjSnJdFIXu+2shavrbH3ffDNZphL/G3Fqv9BYr9PX350L8tuGJjtjoFmdXijE0Pd+lFilic/5OhYZuckG2mKrxeZAt7isW+FbIEChTRUqgnG5kTiu6NL/QAZGYa9AeUO/IeVadTVcSZCJkLJkgPRcxYbNAoCQD6cpkSQwuGnvNO/bQuDZf3V6ly8tRGXL1NV01r9mOLJuLlWWZ/CbKEutr7vzcV++rB1ZPXW5Fqb7MmlfXYhkYb555UCRwO6m29Nmed/pZla85rzxfbdCo8ouN7usN77mjbMBeHvfWRonrEieFlA+xFygPmr2x/yFWFlun2XVZX6711RvNJrL6uorasjvL3Uz9Z09vkfCfvVzyUiXXKokFS2a/HJK4VPKkvjBH0w+MW68u+rd2W+/fKHXZDeYSfaWjsPW64+m9EoNQveCuFJX4d+yibDG5nWqeVuKkEOsAe4Fy+7U/9iyOsvDKAnuk35m51+ewlhn1RkNxZXXX/ZkgUx98c61A9HSg5GiYTKskFkxZ1De/yU58a21upK/DYassLi23VDe4vYNjLxdHGuI8dELiUhEa6/Aam6XCLwe7KkvzNVqjodTZNjS/zgzce3O1XOisGzf9j2NXBt6E99dnn1xpa7RaLEyvKVdn752poWajUL3grhSlaXsVXFt4cKuvocZqMhqy9QWF1ua+Z5EkRyZF3T57UbaYonpojVmYDyMOelIyBMpUkRIouRsozb/9hQ6IRH/R5cd21VKTntSstBjI74QvL4OuVLF9dw4k30ZJ98Wh0a0SJ+mAd0l7dZUtW7ZZ5DGjVBb7LPvExOke3v/wsr3v2Cb7npuVSoH/GAmTZyvk1MDMkhttW0zOa79WRDc5JmldxFOIQlv0cIc9eL8qjQ0uGu8CM3yLrD7vD1JuvB1kRgWnSvSxUzsicamSapXEgiW3XyKkLVVyXxhGZPrEZl2jgR+FaWK7Mq5Ev2MXaoulM7EUoshpfL7GHryftsYGF5P/FXN2an/megX/76vyzhLT5NN4C+8/OUekR4rEWyWxYCb/a/ZMW2h2uDwn0a+xtKUiX+PiG/NMJbNgsV9jtXlgmYlNO+868/itjqZPLD306PlRmCa2K+NSZCvoKSvMV+aZK8Lb724W8EZdoC1WcHWZKQ49r1PzR8kQKFNFSqD85GOeBCTWv5sj5R5KFdvXm5SRCdJzodHxkUa3SpykA561epk5aPU8dtNfXEXjpJ87qFuih5fZ37PHufkbukT/FAVY7IvM1PyCtzYekbQuVApRkAOKXlflsT0JslcMd5t7imMPzKW2BWbuvrFagQO2qc/DtPrqbhV5KpDEpUqmVRILdrr9ImmpMpL6wrAO45HvQX0W1VDAcZwSIXarogCx79jF2mLpjJdCFJeVWl1xTeP1yUX2jrfA6yuFsRu/+PoKcxjefFxN75TL+d63TKvwRIfIH77USJFEqyQWrPTGGps/Vq6UJvE1lrRUhGUwyMxla6KeCi4Z6pbH7HZ+f6OCP+ooHgWfOuiGAo7jlAixWxUFmG8EmCbhR1Wxwy/UFtN3vWAmtT/Zxb9AKkOgTBUESmkHvPyrrexBq6mduuuR0Hmb2LEen+F4oKmXTTMHrb15/PpkGCyvJOQDKetyXCZkY7Xea+b/G53rb2HG/t7YJvRgM0VdbZBp6x2s4I/iSFyqJFolsWCn3C9Slkqe1BeGE5n+51oXfWlGSJxdyYn/hYkh8h27YFssncVJIbvzj/0l/AOzqWuaGRt+0SXQffCywnHvE9N27S7/tssIqZEi8VZJLFie9w27prP9vNe9SiNlqYhC3yw7lymv0L9I+raX7Ni3fbFd6+RH0w/eb5T2NY6zKzkJBEq9d06oyQXbYmrnfeYxRtvvbhTEnn2QIVCmipRAGf+SN0dioPxuL3lX3fMxNXtOBzWK4XCwvRy6h23HA22j7MsGv9TW0vXxZarK6suujdY+mfXMrHUsb3vX93pCXM8G6mDPI2VdjssoK48L9dRtNPKjdTnJPYFuFlGzO2mpkmiVxIIlv19YUpZKntQXhhOZvuRndkbqxR9sLvxU80S+Yxdsi6UzsRQSGq03CP3hVw0G6GLKzrhAN4uo2Z0UKZJolcSCRZqE7rmoqUkhZamImiH2Ds6Nu3XUKEbVXbZbTGCM+r93ZPqSn9kZqRd/sLnwU80v68sdnTeYjthvl+aXg6uB7Y3QXjjS54YXKC/YFpP/Vj7M3gsRum2PeWOfDIEyVaQEyvidcjgSA2VCnXLo+EijWyVOygGvdpy94rZdY6NGMWw1K8zRzj8WFVyOmtjpenE5lvLxjaOeqv5AqH1u0fNypun5bPu60MGeR8q6HJcdvimnuDC3b4Gd6Y6rUSh/RNblJGLLJnGpkmiVxIIlt1+OSFkqeVJfGI7E6fPrE7mHMtHv2AXbYukscgw+elNOfmX/K/aS4trjFqH84RrbPgxn8YidDJMYKZJolcSCRZqsDldTU5NCylLJj+cyJDyXiuEtZsG2H1fzR0mcPr8+kXsoc8y+F++3DjdOeOfD4vKbN7OTk6+n3u1Qm0t+4bYYUdj9lrlbdONxc/RwGQJlqkgJlPEfG8SRGCgTemwQHR9pdKvESTkg2cbYLsN7Dic1iuF0cpdWh6JOn0TOuHxO5LyOvvQJ9/ibUONAi7FAGXVmPr/irdDBnkfKuhyXRaUQZZl9jj1BtXw/j+6xa7/Hrv4nZ70yK0ecSuTSg8SlSqJVEguWzH6JImWp5El9YTgSp8+vlx4oE/+OXbAtls7oFKIsHfjAdrDdHK6he+xWD20w9YExtzI7R5xa5A8/iUO+xFZJLFjkTFhw7A8931Y9xJ7VC4qcb6sePeF820nT59dLD5RazxT7iKX9D5ODbmuhMqpbnsn/nlkqfqC8YFuMoW6eZLq078xED5QhUKaKlED5rR5sTsdHGt0qcVIOSIe3kTV1avijCEN3Mzs25gavgmtcE49f8g0ohde428jaB8xUJ9xI7xP+wZ5Hyrocl8WkEEXNQ/YdOb+33yrnzz2P690icn/biSQuVRKtkliwJPZLNClLJU/qC8OROH1+veRAmcR37IJtsXQmlELUzjurzMDw4oiZ36spv5vt3SJyf9uJkjnkS2uVxIIV9nD36s1cM/JHSSFlqeTH9x2+9An9i2ToeMWOFb8j8KTp8+slB8oi/xw76/eDJfxb5A97OPED5QXbYqws58g60yp6oAyBMlWkBMoMCa9elBIoE331Ih0faXSrxEk6IJnt75jjmX+8ifprzMhqnGQvIAarYnqiWavYXqu9s9e0VBNhjsdcJ+uaGmpUTnsj+0gX/sGeR9K6iKUQbfE4e+5qa7nSzHsSYaSfb89Em/BTr+OTuFTJtEpiwRLfL9Fqn7BXZlcqS6hRMZL4wrAkrTVdLzlQJvMdu1hbLJ0JpxBN8wvu3NXMVQvvDz/Szzf8uimZXZ/UIV9aqyQWzHKL7U38cdlflESfZdc97r3k18zUqBglA9yCvXDxezjJM7IjfZaXblbyR0lba7pecqCsG+U68o/QVwC0LRPsY4P4gfKCbTGOgkvP0QNlCJSpIjFQugo0JAuGOvLE+nqfGChJQ9KcuRezgL6iKoyOjzS6VeKkHZA03eyj+LZW7BWKmFHqcvsse7F45gr7Dqgjl3L8y+yU91sGKiTFnUjvh69uD+8xHMrcwXV2UvTBPpa0dRFNIfn+lhB7UH/l08T+C5LdOcfGgi2XxyjwgB55RqYm+hpKLIlLlVSrxBcs8f0SzTrC7qN9V5PIo1IOJf6FYUlba6qe2pVikvmOXawtls5EUkhmYdf0HntQn+vIj/3DN/lesre4fRhvF37UnyIni39e80hyh3xprRJfsEuFV2fYiLP5drBM4IGm8dlusk/G3nziyeKPipXXyz67cX/uRiX/qYo3ltinKi76CqlWEteaqufvSlGRHjbh5x285Vfa7r4T7pRzwbbYIaNvageB8o8hMVAScy3M1eopp0b91x/ovBg/UJImpCEpIBOhpyyGjo80ulXiJB6QlObKt+yrRNYWatqrdKYcpd6gqz58jQc5Clpj/xjkzAOZbW+594t86Zq6V+GpzS0v0ZktuY764vbrNY8XOu/Ux9SrG+q4XhGLz8xWvTyLDFSozbXlY6s94Y/eFfaYyj/Yx5K4LqIpJFPfv8aO+uRu5b0pp9AyuceO+ui5d720zqY3F2vNFmONu7T7tuPpB+/cgI6eUczsTlqq5FolsWCJ7pdo6vq6ALuPlibLHcXZ+myVwaApLc81a/mVSXxh5JLXml9P70oRyX3HLtIWS2eiKeRy2a0FNjoEnnfE7hdlfvebDbbV2ux4X1tDhaWssNhSanXWeXr7707NBpb7SugZxcwuwUO+xFZJLJja3P+eeytMaGVmyN9ebbMWlVrMtjpHo7d3eOLV8gPxp/yqHffZnis7G499dYW5BrXWqM8vM9st1B0ayuJr3FzCr4a7KkvyNVqDvsTZOsy992V/bsAm9DWWuNb8enpXilDXPuSWP/Cg3aZVkj98hVxvqfY9ngt9WVsLsffR8gPlxdpiRzT1j3aih8gQKFNFeqA0Ziu3vQUkFI5WZAlmSjGkeJTti0Oak4nQUz5zSpv1yXTT1IJnZrVjcat7g30JR/hrz/p25/v1trfvW6beND7q5qcQ5tWxtdVvuewSK7jiqNcLnx4zVFW+2Bbticw/cl/KaZ0+fg7O1hc/dwky/LHJb9b5FgWaJLcucVKIxuHgrm+uPS3k9Z3SmC3jm6LrsnBd9NqTxEN+cusiT2bBEtwv0S5p2mfYTionN0niCyN1W/HrhXalsMS/Y6yLs8XSWZwUoqm6u8kc/j+G77l4f/g5Jd4XS6K9qlf6iukZcSQe8pUVV6aeT828mlmaXwx8COxusa3CW9urK+sLC++np2cmJp53mOmGiS9YpqHy2ptVkTdTCyWqY5fyvS/YTionN8k01txeZF8ezfNp7q5bJ3wlR+K24tcL7Uphl/I7nx8/a2k/FOYuc39Ze3mtuLjvjei6XJgtduxy5Z3ojzIEylSRHigJq1G938O8qnvKqdH9LHztm4eUcecmSUPSnJ7mt6BqaaCPWDybDwTe9URk6XM7R1yv1rvWv/iDu10Lc67b3SaTSCdHjkKpcXZX3Zv2vNvqDn7xb+56F9daX005rnbkF9NP5c3MrulzPFvuXN/3b37uXl5reTxSZtMyh1LrHSYH8A7Dya1L3BSiap7iDv9dd+i3UCiyq7rsZF3eb3cHv/Zu7nUvr3qejVf1NBtNQv+J5Eg85Ce3LhGJL1hi+yWaXFPX75z4wHwHQl98a6H216/q2kuoMlaiXxiJ24pfL7wrRST4HTtyMbZYOoubQnSt49zhf+W+jbqbTW5ytN4Yfz67vhr8tLWzF9wIzr95NXbrSoM1T+TvSy75kK9yP6WTBM/eiINuyEh8wRRZ+XXtN8efv137sLEb2t4LrAXm5+bG7w601Jae8DXOd/nHpmdXtkPbn0Ob4eV3808fevnvKY1Qam2+m4/nFtZ2QuFPgdWVl4/vtFfni3+NJW4rfr3wrhRxOdfZfefVzIftzW2yoTbnpydudFVpmLhmu8VcnhaKeoyLscWixTSRIVCmSkKBMoPNlNx5yq0Okzf31zj9vtVsL5wttls3aXJu0iQAAACkrZiewTIEylRJNFBmsNe+ufspD9hnCY1Zs9yaX0ou/aT7+UeC/EI+koHcE4K4+ybPx5VuAAAASG/F16M/yhAoUyWJQMlxFWi4ZwnFQQqk9+kGAAAA+CMprUMb0UNkCJSpknSg5JToVf1W3XSjaa09f89XSJBfyEcyUOLTywEAAADOwOWia6/DeGzQH+OUgRIA4DuRY9Ci4w5AutHqi4v0er3GWGxpvPF8heneHl0gQ6BMFQRKAEgPTH9waiAAXGyR/uDHQu+iC2QIlKmCQAkA6cF2q3WeGggAF1vVtdmVxbUd5oFHK8sv7g04C2OeOSNDoEwVBEoAAABITzIEylRBoAQAAID0JEOgTBUESgAAAEhPMgTKVEGgBAAAgPQkQ6BMFQRKAAAASE8yBMpUQaAEAACA9CRDoEwVBEoAAABITzIEylRBoAQAAID0JEOgTBUESgAAAEhPMgTKVEGgBAAAgPQkQ6BMFQRKAAAASE8yBMpUQaAEAACA9CRDoEwVBEoAAABITzIEylRBoAQAAID0JEOgTBUESgAAAEhPMgTKVDlloCzRq/qtuulG01p7/p6vkCC/kI9kIBlF1wMAAACcEzIEylRJOlC6CjSr7fkHvUVxkAJSRrcFAAAA+OZkCJSpkkSgNGYr51pMXGTc7DCNWbPcml9KLv2k+/lHgvxCPpKBZBRXQ4pJE3o6AAAAAN+QDIEyVRINlFajettbQGLiVofJm/ur+i9/Uokgo0jBFhsrSRPSkJ4anEP5FW8PesMHvQ9c1CgAADgTppd3G/9zt3HdcR6v8jV1MMsW7XwupxQyBMpUSShQklC438OcdJxyanQ//0iHSBopI8WkCWmITPldQKAEAPjWznWgrKyxz/tr1vtrd283/PscL6cUMgTKVJEeKI3ZSu7c5GhFlvqvP9DZUQwpJk2485S49n3+IVACAHxr5zpQRvlellOUDIEyVaQHSu6+ySmnRixNurJ/WWrSf+kpZO6bbNDxMiV3npJMhJ7yiTzav70t+nOw9AeC/EI+0jWQKgiUAADf2vcS1L6X5RQlQ6BMFYmB0lXAxMFQR57uf4SvdJt/+8t+D3P+crnJMNOgG63I4hWQhqQ5KUi03zeJj9tlf+JBpvzjIFACAHxr30tQ+16WU5QMgTJVJAZK7glB3txf6SjJ8eddIgWTDg096ghpfsA+S4iefhyvC/9MEmRDzt+5j+QX8pEMpCshJRAoAQC+tUhQW60550ENgfKb+S4DZYledcA+IShOn+6B4sukZtiioEcdIc25Zwkl9MzzQOmPJEHKMzO5j+QX8pEMpCslcz1jAtO0P5v8bqg035xoeRfu3tzvWd3wPL1XXpsrp5uwMnMK89qu1zyebVvc9oW++oOfuheXmx+OlNfmKajimHm96FAyH7O0rmuOZ8sdH3b9ob3updWWJ/etTj2/iTxDkV9TNvCk8U2gK/DZv/W1J7DdObfQ+GDE6qnOyblE1zOycgyeW7UTy50re8zEl1eaHw6Z7fpMuvJQpslhGZxseb/t2/ziW9loGb9rqdbL5UbLKwRKAIBvKhLUlqvVGfLsuprymSt1+0Pufw3V71yxP6oxih6nGIq8kqIHnTXhW65/jbgPbjmX2st8BerL/LJTNuEkFCgVOXkFw61VgRv1/xhx/3OwbtNfOWo3GMTWJVNZVFxwq9m2eK3uy5D733fcB7frAv7KezW5+VlUcWRJqrwq0lBVYS193uP8eJtdndu1a90Vt8q12UIHRBkCZapICZT9Vh1JgWPUVWxO/t//uyjjp5FyBal5UKkkvxO5f/svupIYY3vnkAnScxGzVfYDSZDRQ8hHMpCulIwLeRv3C0p8jSu/M7/H+Nw2VKNSUK0Mre4NXuWR/dbbNjYyUrh5zffrFIbCO6s9/Ia/u1vVsU1+U7set2/Ss4jUt/Tk8mdB6Kvtrz9RxcRe66BDYF3kGUr7UGuQrv/k6XdanrC/I1ACAHwrkaA2X5M71NfAPZon2j+vWhxqupWcpM+2ttr/per/c7dhvdGoFUpUyTQ5JjlQZqocDTUH/FkwyLrUMud3eFQdXoEV5/zrmqVKxavnlqT+XmFOX3c91/ecZ7c930itjgyBMlWkBMrpRua0okvzCx0QibkG7QH1jpxn1dl0JUEmQsaSCdJzERM2CwRKMpCulIwLeeGP3au/98w9qXBbc0w5Sr1BW9Ve/XKby2GN7QZ+K7m29Nmed/pZla85rzxfbdCo8ouN7usN77+wTQL28t+oJofzCoxbry76t3Zb798oddkN5hJ9paOw9brj6b0SQ2x9TksDm/N80/fMtZacPK1Kr88xW00NXtvodNvyZAmdxZXF1ul9Zi7ry7W+eqPZpDLk6ipqy+4sdzML9tnTW8T/E8ptdwfY1Lg6V9Vq05HVNxi1tpbKJ0F/eK+Hy80IlAAA30okqP1jqOE/w7WTDpPNoM5Rq4wGg9dd84UdddCdTx2nlNVNtf/HjHUtNxY4jNk5arUp19DTVPM7M9C9VqvNTEGTaBIDpaK0tuZf7FwCrcUNBTl52SqTUVdfVR4YZJr/v77iYuo8pbbS/s9bNVPu4tZibYFGlZOdXVJgutUVyb7bLl3sMTeyJF9uuf7vrnurs6StMMeUrdJqc6zmoolrXDZ1z1j5jy+UIVCmipRAyd1Aaf7tL3RAJPqLLj+2q5aa9KRmpcVAfid8eRl0pYrtu3Mg+TZKui8OjW4lQSRQHvSuPC7g5TOV2fb2KztqzJTFbyjPVlDf+IzMkhttW8zU2q8V8UYxjuYV3qxrNPCDHa3moY8pXq00U6MIhcD1bo13gZn+1rLNwrs8ITfeDjKjglMl+ujhl3MHw+wikSby2Cb6kieHZzoRKAEAvpVIPPrP3foXpbybxBSWegd7Bq7+QWHMBahLhtIQ2ypQr4v9t11R4XIyTe44rmhjZpREk1jSAqW26MMdpmyjnh9P5QVlH9mo99ZK3Qsnz8qij7nynMFr7JbpLy2OGXW0xRo33QYVr5Xa9JpNrv/pKdTGjpIhUKaKlED5ycc8CUisfzdHyj2UKravNykjE6TnQqPjI41uJcFhyGu7VsgfJc9QuCfYC9O7DqfQGUcBFvsiMzX/qIMadTwv34N6gXs+aOVDXezcG5pz+KOEldoW2OmP1QqkVVOfh5naV3erMmp4jWONXeDxRoFFKh9mFwCBEgDg2zmMRwOlpfxR8oysvNcjzNgDjzH6OGVrrGOajNia6X/bs/Km2SY7rpjTKEk0iSUpUJrra5m5DFXU0wHxcva1K8wU/t1dwE+BIioauGWuqIsZfrjFBq0uoV4N9R43O9ZSFTtchkCZKukcKHcdNQIn/C7ruprYRNV6JZ8/SpghXi+WyLw+17ok3N1MKMvs8+xtnZubTbe78gqVAjExWq6/hZn+741tvHsxWYq6WvYCunew4nhgYX8bu4JNnRp+PaO+jruDU3B1AADgDETi0T89RqHjlMrnY8PTtZKC44HZA1e5k3AFQv+2K3t62LFXioynasIjJVCqr/QyNf/XXZDNH8VoaGWj3i1LJTVKkLG6mqm/W+mOGR5Zkv/tMAleoy+udTKt7vBaIVCmjpRAGf+SN0dioDxXl7xXKkuoUQyHg72J0Ddsp0Zlqsrqy66N1j6Z9cysdSxve9f3ekKH3XoEE1hkXquVpdQoEYqSjtq5vcg0w5+7Xo3b2qo02UL/phC2UW+kMq57tcdNqu6z91buOZzU1Bhm7pSn8OoAAMAZiMSjrfocahSjroW9KXCovPp4oOHxENPkHx4jXX/cZLA86hRdEk14pARK/cPbbDCN746VPuhkZmsb7KUP22yLV5xbA3X7txv+Mez+P/bquVigDNdrqQVgFDgcQq0QKFNHSqCM3ymHIzFQJtQph46PNLqVBJGQt1RRRI1i2GpWmETlH4sKYUSOpXx846ibtj8Qap9b9LycaXo+274unsAi81qskHRS9lCWzuC57Xq7c5wI1z/U9zkEXlxZO+6n4yMtetnqxtmB2zU2amoMPIcSAOBbi8SjgFM4qFU11bMhrKL+eGDuCzZp7TfF3DSf6iY8UgJlZC4n4UU9ZUWNbYe95s4Yadi77lzvq37vsy/2u4TqT1gSBMo/nJRAGf+xQRyJgTKhxwbR8ZFGt5IgEvLWbIIdX+S1TvYycfewLWqgvjTSWyXUONBiLIi+Eh03gSUXKCMuq8oaLLdftQUiJ0G7J71a3jOA7PfY042fnPXKrBxxqqgL7odnKJ0Oeo5EceWc+OoAAMAZODpDKXy+TeiOQP0jtt/JP1uETzdGmtw+ZROeE2Icy/CYncuBJ1elVIpTRN8YZrDauGcM7fnMbfkaVdQxVyQanrAkIq0QKFNHSqD8Vg82p+MjjW4lQSTk7dfWCnW70Xc3s+mttS/veGDhtVZ2YPuAmbqnONItRjiBnSpQHtIUFQ9/YM9E7rs9sfeg5HHdbg6a2gXvTRFSdHgPpWAThcPJPVFIcHUAAOAMROLRv1pzhY5TKr+fPW93NfoeSvW1PnZgT6FQn05VL9ck5obIJJrwnBDjWNn9bLeb//QI30MpRHODu7nzutlCHXMjXXz40fCEJUGg/MNJCZQZEl69KCVQJvrqRTo+0uhWEhz2vO64YeaPkmdkNU6y0e1jTXSXHcdjrut3TQ2//nJOeyP72CDhBJaSQClnnhNhf8/MpXuE9z/FMm54z0Sb8JPVBTgcbGTsedQg0BWu5AYXN4VXBwAAzsBhn+WBMgt/lDxDGel//bU5psuOxcUmrRGbh+6yrcx7wzb52BBzhTCJJrFOiHGc8shcqjoFH8YuwPic68beTJ86VXq72S3Dj4YnLAkC5R9OYqB0FWhIFgx15In19T4xUJKGpDlzL2aB8M6m0fGRRreS4OjZkGsTxYbYzi5qs22Gew7l3dzoGxYjfV++uj3Rz98hlLmD65GpCSawRANltlIg5MmZZ89yd3Z23bbyRmV3zrEJeMvlod8BwMjUKGP/h3fZNMw+v31rqbKM1xtOnT+6FW91AADgDBwGyruu1+Wq2ONU1uFzKF2851BmaItW2bsVNxt0itgm1gYH8/TyO47r+tgZJdEkxgkxLiKncJmdy15nvvBLI+VZscepSD+ef3sLeMdcVYElHLdTjtiSIFD+4SQGSmKuhblaPeXUqP/6A50X4wdK0oQ0JAVkIvSUxdDxkUa3kiAS8vZ8wYOe95OVTeyrYnR6ra2taop7U86u26OLaaJuqON63iw+M1v1cuaZ5wq1ubZ8bLUn/NHLvb9RMIElGihdT33vZ2oHfMWOcm2eVqnTqPIK9M6OqgnuUeSbNTbq8UPKQssk1yv8o+fe9dI6m95crDVbjDXu0u7bjqcfvHMDOl4TU1cT9zqcldkqj01r0ij1eq21oXxsxRfe8bJPqRReHQAAOAORePTPYfd/Rmqna/OqmHfYKA0Gfae7OvKmHG+Bnt9KUVbnYF8k4/rQxLz2RqtWGY0GX+S1N42bLj3vZRZJNYl2Qow7pCiqrvoHW/n1ivVWZW6VKafEoC3PNzRbi0Za7MHbztvG6Pqspna2582dupc2vUHB5GZFtra+pmJzuPHrrXr21T4IlNSgb0t6oDRmK7e9BSQUjlZkCWZKMaR4lO2LQ5obBfopn71IyHtR5hz0CLyee89z005dPr6U0zp9/ICerS9+7jJ3+GOT36zzLYomsIQD5eHZUwEfm6+UC5+/1Jgt45ui3b0XrlPvObikqrnbJvAu74/N/tK822yqFlwdAAA4A1w8ct7I0w8Lvsv7Slm14OXjTHW92/FPqv4/d92bLbnCb2tLrImiqtY276v+cMUZGqj7fLuBe2v2v0ca9m/Whfsdq73VC92VvbnUXC5nWapsu6LdvWtvGWLqL+ny56MeNvS/h929v/aUlBmL1pjfESipQd+W9EBJWI3q/R7mVd1TTo3uZ+Fr3zykjDs3SRqS5vQ0v4VIaJuz5GZkmhzlgy8977d7Qvs9qxueJ6PlDoPgCXnmgVg1fY5ny53r+/7Nz93Lay2PR8psWuaPzXqHyZqCCSzRQKnONbXecDye8SxsdW988Yd/7wnuds7PN9y5XmKJfzuzIruqy35vmqxLd/Br7+Ze9/Kq59l4VU+z0ST8/0t5fm358CvPIrPuvpWNlvE7ZXYdWR1l2wwCJQDAt8TGo8HyGvJvslztqC5/e6Xuy7D7X8Ouj1fsD2uMRpHjFEthKCi811EdvuX614j74FbtckdZb1G24OO+E2+iaOui4yCP+0kx3ZChyDH4GqzzV+r2B93/vuP+52B9qM/+wl3sKVDTx6nMHGN/sz1wo+Ffd9z/b7B+q9c2VqVnj7m6+7foaIhA+a0lFCgz2EzJnafc6jB5c3+N0+9bzfbC2WK7dZMm5yZNyhMPeQAAAHAByRAoUyXRQJnBXvvm7qc8YJ8lNGbNcmt+Kbn0k+7nHwnyC/lIBnJPCOLumzwfV7qPIFACAAAAAmXqJBEoOa4CDfcsoThIgfQ+3WcIgRIAAAAQKFMn6UDJKdGr+q266UbTWnv+nq+QIL+Qj2SgxKeXfwsIlAAAAIBAmTqnDJTfJwRKAAAAQKBMHQRKAAAASE8yBMpUQaAEAACA9CRDoEyVtAyUAAAAAAiUqYNACQAAAOlJhkCZKgiUAAAAkJ5kCJSpgkAJAAAA6UmGQJkqCJQAAACQnmQIlKmCQAkAAADpSYZAmSoIlAAAAJCeZAiUqYJACQAAAOlJhkCZKgiUAAAAkJ5kCJSpgkAJAAAA6UmGQJkqCJQAAACQnmQIlKmCQAkAAADpSYZAmSoIlAAAAJCeZAiUqYJACQAAAOlJhkCZKgiUAAAAkJ5kCJSpwgVKejgAAADAhYdAmRokUH5u/YlsTQAAAIB0Q1IQnY7Ov3MXKAEAAADg+4JACQAAAACngkAJAAAAAKeCQAkAAAAAp3KmgfJT3B+6HgDgbBQWlfD/SYr6GRoappsAAJwN8k8Q/1+lqB/yzxfd5OwhUAIAIFACwPmFQMnH3waxP3Q9AMDZQKAEgHMLgZKPvw1if+h6AICzgUAJAOcWAiUffxvE/tD1AABnA4ESAM4tBEo+/jaI/aHrAQDOBgIlAJxbCJR8/G0Q+0PXAwCcDQRKADi3ECj5+Nsg9oeuBwA4GwiUAHBuIVDy8bdB7A9dDwBwNhAoAeDcQqDk42+D2B+6HgDgbCBQAsC5hUAJAAAAABcfAiUAAAAAnAoCJQAAAACcCgIlAAAAAJwKAiUAAAAAnAoCJQAAAACcCgIlAAAAAJwKAiUAAAAAnAoCJQAAAACcCgIlAAAAAJwKAiUAAAAAnAoCJQAAAACcCgIlAAAAAJwKAiUAAAAAnAoCJQAAAACcCgIlAAAAAJwKAiUAAAAAnAoCJQAAAACcCgIlAAAAAJwKAiUAAAAAnAoCJQAAAACcCgIlAAAAAJwKAiUAAAAAnAoCJQAAAACcCgIlAAAAAJwKAiUAAAAAnAoCJQAAAACcyv8HVll+ZF8sraIAAAAASUVORK5CYII=;" vertex="1" parent="WIyWlLk6GJQsqaUBKTNV-1">
          <mxGeometry x="-450" y="80" width="420" height="329.32" as="geometry" />
        </mxCell>
        <mxCell id="dguLM9EPbyCD3lKZ755u-5" value="实例化Configuration：&lt;br&gt;1. 类型别名注册&lt;br&gt;2. 设置默认sql xml解析类XMLLanguageDriver" style="strokeWidth=2;html=1;shape=mxgraph.flowchart.annotation_1;align=left;pointerEvents=1;" vertex="1" parent="WIyWlLk6GJQsqaUBKTNV-1">
          <mxGeometry x="280" y="280" width="50" height="70" as="geometry" />
        </mxCell>
      </root>
    </mxGraphModel>
  </diagram>
</mxfile>
